<svg xmlns="http://www.w3.org/2000/svg" viewBox="0 0 117.31 81.89"  width="64" height="44"><defs><style>.cls-1{fill:none;stroke:#000;stroke-linecap:round;stroke-linejoin:round;stroke-width:3px;}</style></defs><title>afterpay-icon-01</title><g id="Livello_2" data-name="Livello 2"><g id="Icon_Set" data-name="Icon Set"><rect x="21.58" y="65.32" width="94.23" height="7.05"/><circle cx="18.65" cy="15.09" r="5.95"/><path d="M27.93,9.14a5.92,5.92,0,0,0-2.55.58,8.59,8.59,0,0,1,0,10.74A6,6,0,1,0,27.93,9.14Z"/><line class="cls-1" x1="12.46" y1="46.41" x2="23.29" y2="46.41"/><line class="cls-1" x1="32.95" y1="46.41" x2="43.78" y2="46.41"/><line class="cls-1" x1="53.45" y1="46.41" x2="64.28" y2="46.41"/><line class="cls-1" x1="73.94" y1="46.41" x2="84.78" y2="46.41"/><rect class="cls-1" x="1.5" y="1.5" width="94.23" height="58.81" rx="6.13" ry="6.13"/><path class="cls-1" d="M95.73,21.58h13.75a6.33,6.33,0,0,1,6.33,6.33V74.06a6.33,6.33,0,0,1-6.33,6.33H27.91a6.33,6.33,0,0,1-6.33-6.33V60.31"/><rect x="68.73" y="9.14" width="16.05" height="11.91" rx="2.28" ry="2.28"/></g></g></svg>