<svg xmlns="http://www.w3.org/2000/svg" viewBox="0 0 460.83 95.65"><defs><style>.cls-1{fill:#373737;}.cls-2{fill:#2b78ad;}.cls-3{fill:#114778;}</style></defs><title>Risorsa 2</title><g id="Livello_2" data-name="Livello 2"><g id="Layer_1" data-name="Layer 1"><path class="cls-1" d="M232,31.76a23,23,0,0,1,0,32.52,22.76,22.76,0,0,1-16.26,6.64,15.76,15.76,0,0,1-10.87-4.33l-.48-.38V92l-11.64,3.67V26h11.64v3.46l.48-.48c3.46-3.37,7.41-3.85,10.87-3.85A23.09,23.09,0,0,1,232,31.76ZM227.14,48a11.36,11.36,0,1,0-11.35,11.64A11.63,11.63,0,0,0,227.14,48Z"/><path class="cls-1" d="M249.66,64.29a23,23,0,0,1,0-32.52,22.76,22.76,0,0,1,16.26-6.64,15.76,15.76,0,0,1,10.87,4.33l.48.38V26h11.64V70.06H277.27V66.6l-.48.48c-3.46,3.37-7.41,3.85-10.87,3.85A23.1,23.1,0,0,1,249.66,64.29ZM254.56,48a11.36,11.36,0,1,0,11.35-11.64A11.63,11.63,0,0,0,254.56,48Z"/><path class="cls-1" d="M249.66,64.29a23,23,0,0,1,0-32.52,22.76,22.76,0,0,1,16.26-6.64,15.76,15.76,0,0,1,10.87,4.33l.48.38V26h11.64V70.06H277.27V66.6l-.48.48c-3.46,3.37-7.41,3.85-10.87,3.85A23.1,23.1,0,0,1,249.66,64.29ZM254.56,48a11.36,11.36,0,1,0,11.35-11.64A11.63,11.63,0,0,0,254.56,48Z"/><path class="cls-1" d="M300.56,95.65,311,70.16,293.44,26h12.89l11,27.42L328.47,26h12.8l-28.1,69.66Z"/><path class="cls-1" d="M300.56,95.65,311,70.16,293.44,26h12.89l11,27.42L328.47,26h12.8l-28.1,69.66Z"/><path class="cls-1" d="M22.53,70.45A22.68,22.68,0,0,1,6.56,64a22.67,22.67,0,0,1,0-31.91,22.68,22.68,0,0,1,16-6.47c6.09,0,11.22,3.22,14.45,5.93l.93.78V26.56h7.14V69.49H37.91V63.75l-.93.78C33.75,67.23,28.62,70.45,22.53,70.45Zm0-37.91A15.48,15.48,0,1,0,37.91,48,15.45,15.45,0,0,0,22.53,32.54Z"/><path class="cls-1" d="M58,69.49V33.31H51.44V26.56H58V13.87A13.81,13.81,0,0,1,72,0h9L79.2,6.76h-7a7.4,7.4,0,0,0-7.11,7.3v12.5H78.69v6.76H65.12V69.49Z"/><path class="cls-1" d="M105.62,69.49A14.07,14.07,0,0,1,91.56,55.43V33.31H85V26.56h6.54V0H98.7V26.56h13.57v6.76H98.7V55.24c0,3.92,3.39,7.49,7.11,7.49h7l1.81,6.76Z"/><path class="cls-1" d="M136.35,70.26a19.17,19.17,0,0,1-14.48-6.55A22.07,22.07,0,0,1,116,50.2a14,14,0,0,1-.09-2,23.44,23.44,0,0,1,.56-5.07,22.66,22.66,0,0,1,5.35-10.42,19.61,19.61,0,0,1,29.09,0,21.69,21.69,0,0,1,5.34,10.4,28.9,28.9,0,0,1,.51,6.35h-34v.76c1,7.6,6.74,13.36,13.36,13.46A17.41,17.41,0,0,0,147,59.22l6,3.56a25.22,25.22,0,0,1-5.28,4.29A24.35,24.35,0,0,1,136.35,70.26Zm0-37.43c-5.52,0-10.65,4-12.75,9.9l-.07.13-.41.82H149.6l-.51-1C147.11,36.82,142,32.83,136.37,32.83Z"/><path class="cls-1" d="M163.83,69.49V26.56H171V32l1-1.09c2.53-2.79,10-5.07,14.92-5.28l-1.74,7.13C177.29,33,171,39.09,171,46.58V69.49Z"/><path class="cls-2" d="M402.92,38.16l12.5-7.24c-1.38-2.42-1-1.84-2.3-4.13s-.83-3.38,1.92-3.4q12-.09,24.07,0c2.38,0,3,1,1.76,3.13q-6,10.47-12,20.86c-1.29,2.21-2.42,2.21-3.77,0s-1-1.67-2.5-4.2L410.1,50.46a9.4,9.4,0,0,0,.82,1.5c3.09,5.37,4.47,7.94,7.66,13.25,3.78,6.29,11.7,6.67,16.2.86a18.31,18.31,0,0,0,1.37-2q11.36-19.67,22.67-39.37a15.68,15.68,0,0,0,1.78-4.27,9.43,9.43,0,0,0-9.24-11.54c-16.22-.09-32.45-.1-48.68,0a9.54,9.54,0,0,0-8.58,14C395.16,25,396.43,27,397.62,29Z"/><path class="cls-3" d="M366.84,78.68c0-4.87,0-14.39,0-14.39s-2,0-4.69,0-3.31-1-2-3.34q5.92-10.37,12-20.66c1.2-2,2.26-2.22,3.57,0,4,6.9,8,13.79,11.91,20.71,1.25,2.21.69,3.18-1.84,3.26H381V78.72h16.88c7.28-.11,11.56-6.72,8.81-13.48a18.16,18.16,0,0,0-1.07-2.19Q394.37,43.51,383.11,24a15.56,15.56,0,0,0-2.77-3.65,9.36,9.36,0,0,0-14.5,2.17Q353.6,43.32,341.62,64.29a9.46,9.46,0,0,0,7.71,14.32C351.67,78.76,361.67,78.68,366.84,78.68Z"/></g></g></svg>