<svg xmlns="http://www.w3.org/2000/svg" viewBox="0 0 64.9 115.84"  width="27" height="48"><defs><style>.cls-1{fill:none;stroke:#23252d;stroke-miterlimit:10;stroke-width:3px;}</style></defs><title>afterpay-icon-02</title><g id="Livello_2" data-name="Livello 2"><g id="Icon_Set" data-name="Icon Set"><path class="cls-1" d="M6.79,105.73S-4.29,82.23,25,63.75c0,0,4.53-2.74,4.53-5.82S25,52.1,25,52.1c-29.25-18.48-18.17-42-18.17-42"/><path class="cls-1" d="M4.54,1.5H60.36a3,3,0,0,1,3,3v5.57a0,0,0,0,1,0,0H1.5a0,0,0,0,1,0,0V4.54a3,3,0,0,1,3-3Z"/><path class="cls-1" d="M1.5,105.73H63.4a0,0,0,0,1,0,0v5.57a3,3,0,0,1-3,3H4.54a3,3,0,0,1-3-3v-5.57a0,0,0,0,1,0,0Z"/><path class="cls-1" d="M58.11,105.73s11.08-23.5-18.17-42c0,0-4.53-2.74-4.53-5.82s4.53-5.82,4.53-5.82c29.25-18.48,18.17-42,18.17-42"/><path class="cls-1" d="M58.11,105.73s11.08-23.5-18.17-42c0,0-4.53-2.74-4.53-5.82s4.53-5.82,4.53-5.82c29.25-18.48,18.17-42,18.17-42H6.79S-4.29,33.62,25,52.1c0,0,4.53,2.74,4.53,5.82S25,63.75,25,63.75c-29.25,18.48-18.17,42-18.17,42Z"/><path d="M10.69,100.35H54.26a23.75,23.75,0,0,0,.32-9.27,97.64,97.64,0,0,0-44.14,0A24.43,24.43,0,0,0,10.69,100.35Z"/><path d="M27.8,47.52a18.72,18.72,0,0,1,4.65,4.08,18.69,18.69,0,0,1,4.65-4.08c11.29-7.15,15.69-15,17.11-21.42a97.68,97.68,0,0,0-43.51,0C12.12,32.57,16.52,40.39,27.8,47.52Z"/></g></g></svg>