<svg xmlns="http://www.w3.org/2000/svg" width="23" height="27" viewBox="0 0 23 27">
  <defs>
    <style>
      .cls-1 {
        fill-rule: evenodd;
      }
    </style>
  </defs>
  <path id="Forma_2" data-name="Forma 2" class="cls-1" d="M2750.36,326.864a0.436,0.436,0,0,1-.45-0.422v-3.377a4.425,4.425,0,0,0-8.84,0v3.377a0.446,0.446,0,0,1-.89,0v-3.377a5.316,5.316,0,0,1,10.62,0v3.377A0.433,0.433,0,0,1,2750.36,326.864Zm5.74,14.731h-21.22a0.423,0.423,0,1,1,0-.844h21.22A0.423,0.423,0,1,1,2756.1,341.6Zm-1.32,3.419H2736.2a2.164,2.164,0,0,1-2.21-2.11l0.89-19.013a0.43,0.43,0,0,1,.44-0.4h20.34a0.43,0.43,0,0,1,.44.4l0.89,18.994A2.167,2.167,0,0,1,2754.78,345.014Zm-19.04-20.682-0.86,18.59a1.289,1.289,0,0,0,1.32,1.247h18.58a1.293,1.293,0,0,0,1.32-1.265l-0.86-18.572h-19.5Zm15.94,2.532a1.326,1.326,0,1,1-1.32-1.266A1.294,1.294,0,0,1,2751.68,326.864Zm-9.73,0a1.326,1.326,0,1,1-1.32-1.266A1.294,1.294,0,0,1,2741.95,326.864Z" transform="translate(-2734 -318)"/>
</svg>
