<svg xmlns="http://www.w3.org/2000/svg" viewBox="0 0 96 104">
  <metadata><?xpacket begin="﻿" id="W5M0MpCehiHzreSzNTczkc9d"?>
    <x:xmpmeta xmlns:x="adobe:ns:meta/" x:xmptk="Adobe XMP Core 5.6-c138 79.159824, 2016/09/14-01:09:01        ">
     <rdf:RDF xmlns:rdf="http://www.w3.org/1999/02/22-rdf-syntax-ns#">
      <rdf:Description rdf:about=""/>
    </rdf:RDF>
  </x:xmpmeta>
  
  
  
  
  
  
  
  
  
  
  
  
  
  
  
  
  
  
  
  
  
  <?xpacket end="w"?></metadata>
  <defs>
    <style>
      .cls-1 {
      fill: #fff;
      fill-rule: evenodd;
      opacity: 0.35;
      }
    </style>
  </defs>
  <path id="Forma_18" data-name="Forma 18" class="cls-1" d="M3809,3989.05l14.44-2.9,13.86,39.21,17.09-10.65V4071H3809v-81.95Zm26.48-16.76-6.88,12.81,11.93,33.78,16.47-10.49,16.47,10.49,11.93-33.78q-3.435-6.405-6.88-12.81-21.495-10.59-43.04,0h0Zm39.29,4.06c-11.93-5.43-23.61-5.43-35.49,0,11.88,28.25,23.56,28.61,35.49,0h0Zm30.23,12.7-14.44-2.9-13.86,39.21-17.09-10.65V4071H3905v-81.95Zm-37.52,47.8a2.635,2.635,0,1,1,2.6-2.64,2.6,2.6,0,0,1-2.6,2.64h0Zm0,20.5a2.635,2.635,0,1,1,2.6-2.64,2.6,2.6,0,0,1-2.6,2.64h0Z" transform="translate(-3809 -3967)"/>
</svg>
