<svg xmlns="http://www.w3.org/2000/svg" viewBox="0 0 113 168">
	<defs>
		<style>
			.cls-1 {
			fill: #595959;
			fill-rule: evenodd;
			}
		</style>
	</defs>
	<path id="Forma_6" data-name="Forma 6" class="cls-1" d="M4840.41,2329.94a9.428,9.428,0,0,1,.53,3.12,9.844,9.844,0,0,1-4.35,8.09c-8.87,6.09-7.69,4.56-11.03,14.47a10.468,10.468,0,0,1-9.99,6.93h-0.03c-10.94-.04-9.03-0.62-17.85,5.52a10.891,10.891,0,0,1-12.38,0c-8.82-6.14-6.92-5.56-17.85-5.52h-0.03a10.445,10.445,0,0,1-9.98-6.93c-3.34-9.93-2.19-8.39-11.04-14.47a9.848,9.848,0,0,1-4.35-8.1,9.37,9.37,0,0,1,.53-3.11c3.41-9.87,3.42-7.97,0-17.88a9.413,9.413,0,0,1-.53-3.11,9.848,9.848,0,0,1,4.35-8.1c8.84-6.08,7.69-4.54,11.04-14.47a10.432,10.432,0,0,1,9.98-6.93h0.03c10.91,0.03,8.97.66,17.85-5.53a10.938,10.938,0,0,1,12.38,0c8.82,6.15,6.92,5.56,17.85,5.53h0.03a10.454,10.454,0,0,1,9.99,6.93c3.34,9.91,2.16,8.38,11.03,14.47a9.831,9.831,0,0,1,4.35,8.09,9.428,9.428,0,0,1-.53,3.12C4837.01,2321.93,4836.99,2320.03,4840.41,2329.94Zm-24.19-19.58-7.66-7.59-23.24,23.62-10.88-10.23-7.66,7.58,18.54,17.82Zm-43.33,66.16a49.688,49.688,0,0,1-13.23-1.5c-2.18,21.48-9.6,37.6-24.66,53.15a36.269,36.269,0,0,0,20.01-3.92,52.733,52.733,0,0,1,5.41,15.75,110.374,110.374,0,0,0,26.38-56.5C4780.13,2382.23,4778.08,2380.03,4772.89,2376.52Zm37.22,0c-5.21,3.55-7.37,5.74-13.9,6.98a110.52,110.52,0,0,0,26.37,56.5,52.733,52.733,0,0,1,5.41-15.75,36.269,36.269,0,0,0,20.01,3.92c-15.04-15.53-22.37-31.72-24.57-53.17A49.65,49.65,0,0,1,4810.11,2376.52Z" transform="translate(-4735 -2272)"/>
</svg>
