<svg xmlns="http://www.w3.org/2000/svg" viewBox="0 0 92 92">
  <metadata><?xpacket begin="﻿" id="W5M0MpCehiHzreSzNTczkc9d"?>
    <x:xmpmeta xmlns:x="adobe:ns:meta/" x:xmptk="Adobe XMP Core 5.6-c138 79.159824, 2016/09/14-01:09:01        ">
     <rdf:RDF xmlns:rdf="http://www.w3.org/1999/02/22-rdf-syntax-ns#">
      <rdf:Description rdf:about=""/>
    </rdf:RDF>
  </x:xmpmeta>
  
  
  
  
  
  
  
  
  
  
  
  
  
  
  
  
  
  
  
  
  
  <?xpacket end="w"?></metadata>
  <defs>
    <style>
      .cls-1 {
      fill: #fff;
      fill-rule: evenodd;
      opacity: 0.35;
      }
    </style>
  </defs>
  <path id="Forma_15" data-name="Forma 15" class="cls-1" d="M3849,4743.49a36.49,36.49,0,1,0-36.49-36.49A36.494,36.494,0,0,0,3849,4743.49Zm10.93-40.86a4.37,4.37,0,1,1-4.37,4.37A4.374,4.374,0,0,1,3859.93,4702.63Zm-21.86,0a4.37,4.37,0,1,1-4.37,4.37A4.368,4.368,0,0,1,3838.07,4702.63ZM3849,4753a46,46,0,1,0-46-46A46.058,46.058,0,0,0,3849,4753Zm0-86.54a40.54,40.54,0,1,1-40.54,40.54A40.591,40.591,0,0,1,3849,4666.46Z" transform="translate(-3803 -4661)"/>
</svg>
