<svg xmlns="http://www.w3.org/2000/svg" viewBox="0 0 144 72">
  <metadata><?xpacket begin="﻿" id="W5M0MpCehiHzreSzNTczkc9d"?>
    <x:xmpmeta xmlns:x="adobe:ns:meta/" x:xmptk="Adobe XMP Core 5.6-c138 79.159824, 2016/09/14-01:09:01        ">
     <rdf:RDF xmlns:rdf="http://www.w3.org/1999/02/22-rdf-syntax-ns#">
      <rdf:Description rdf:about=""/>
    </rdf:RDF>
  </x:xmpmeta>
  
  
  
  
  
  
  
  
  
  
  
  
  
  
  
  
  
  
  
  
  
  <?xpacket end="w"?></metadata>
  <defs>
    <style>
      .cls-1 {
      fill: #fff;
      fill-rule: evenodd;
      opacity: 0.35;
      }
    </style>
  </defs>
  <path id="Forma_17" data-name="Forma 17" class="cls-1" d="M3852.29,4960.9h0.19a1.2,1.2,0,0,0-1.18-1.12,5.19,5.19,0,1,1,5.18-5.2,1.2,1.2,0,0,0,2.39,0,7.57,7.57,0,1,0-8.46,7.51v1.3h1.88v-2.49Zm65.51,48.78-46.37-26.28a28.2,28.2,0,0,1-8.39-8l-0.36-.57-3.02-4.79c-0.1-.17-0.21-0.29-0.33-0.46v0.06h-0.01a8.994,8.994,0,0,0-7.03-4.3v-0.07h-1.88v0.04a8.685,8.685,0,0,0-6.76,3.71h-0.01l-0.01.01a10.077,10.077,0,0,0-.96,1.5l-2.39,3.73c-0.07.11-.15,0.23-0.23,0.35l-0.11.18h0l-0.32.5a28.013,28.013,0,0,1-8.39,7.98l-47.02,26.43c-2.87,1.61-5.21,4.39-5.21,6.12s2.69,3.19,5.97,3.19h132.05c3.29,0,5.98-1.47,5.98-3.19S3920.66,5011.3,3917.8,5009.68Zm0.72,6.21H3783.48c-0.82,0-1.49-.34-1.49-0.76a2.122,2.122,0,0,1,1.37-1.36l66.56-28.8a3.972,3.972,0,0,1,2.74.01l65.98,28.79a2.1,2.1,0,0,1,1.37,1.36C3920.01,5015.55,3919.34,5015.89,3918.52,5015.89Z" transform="translate(-3779 -4947)"/>
</svg>
