<svg xmlns="http://www.w3.org/2000/svg"  viewBox="0 0 102 85">
  <metadata><?xpacket begin="﻿" id="W5M0MpCehiHzreSzNTczkc9d"?>
    <x:xmpmeta xmlns:x="adobe:ns:meta/" x:xmptk="Adobe XMP Core 5.6-c138 79.159824, 2016/09/14-01:09:01        ">
     <rdf:RDF xmlns:rdf="http://www.w3.org/1999/02/22-rdf-syntax-ns#">
      <rdf:Description rdf:about=""/>
    </rdf:RDF>
  </x:xmpmeta>
  
  
  
  
  
  
  
  
  
  
  
  
  
  
  
  
  
  
  
  
  
  <?xpacket end="w"?></metadata>
  <defs>
    <style>
      .cls-1 {
      fill: #fff;
      fill-rule: evenodd;
      opacity: 0.35;
      }
    </style>
  </defs>
  <path id="Forma_13" data-name="Forma 13" class="cls-1" d="M3894.5,4277.1a5.1,5.1,0,0,0-5.1-5.1h-74.8a5.1,5.1,0,0,0-5.1,5.1v50.15h85V4277.1Zm-8.5,41.65h-68V4280.5h68v38.25Zm8.5,12.75h-85c-0.84,1.58-8.5,19.47-8.5,21.24a4.262,4.262,0,0,0,4.26,4.26h93.48a4.262,4.262,0,0,0,4.26-4.26C3903,4350.97,3895.34,4333.08,3894.5,4331.5Zm-51.97,21.25,1.98-4.25h14.98l1.98,4.25h-18.94Z" transform="translate(-3801 -4272)"/>
</svg>
