<svg xmlns="http://www.w3.org/2000/svg" xmlns:xlink="http://www.w3.org/1999/xlink" preserveAspectRatio="xMidYMid" width="19" height="22" viewBox="0 0 19 22">
  <defs>
    <style>
      .cls-1 {
        fill: #8b8b8b;
        fill-rule: evenodd;
      }
    </style>
  </defs>
  <path d="M1.493,5.479 L1.493,21.972 L17.657,21.972 L17.657,5.479 L1.493,5.479 ZM5.983,18.307 C5.983,18.813 5.581,19.223 5.085,19.223 C4.589,19.223 4.187,18.813 4.187,18.307 L4.187,9.144 C4.187,8.638 4.589,8.228 5.085,8.228 C5.581,8.228 5.983,8.638 5.983,9.144 L5.983,18.307 ZM10.473,18.307 C10.473,18.813 10.071,19.223 9.575,19.223 C9.079,19.223 8.677,18.813 8.677,18.307 L8.677,9.144 C8.677,8.638 9.079,8.228 9.575,8.228 C10.071,8.228 10.473,8.638 10.473,9.144 L10.473,18.307 ZM14.963,18.307 C14.963,18.813 14.561,19.223 14.065,19.223 C13.569,19.223 13.167,18.813 13.167,18.307 L13.167,9.144 C13.167,8.638 13.569,8.228 14.065,8.228 C14.561,8.228 14.963,8.638 14.963,9.144 L14.963,18.307 ZM18.555,1.814 L18.555,3.646 L0.595,3.646 L0.595,1.814 L5.724,1.814 C6.532,1.814 7.188,0.807 7.188,-0.019 L11.962,-0.019 C11.962,0.807 12.618,1.814 13.427,1.814 L18.555,1.814 Z" class="cls-1"/>
</svg>
