<svg xmlns="http://www.w3.org/2000/svg" viewBox="0 0 85.281 69.156">
  <metadata><?xpacket begin="﻿" id="W5M0MpCehiHzreSzNTczkc9d"?>
    <x:xmpmeta xmlns:x="adobe:ns:meta/" x:xmptk="Adobe XMP Core 5.6-c138 79.159824, 2016/09/14-01:09:01        ">
     <rdf:RDF xmlns:rdf="http://www.w3.org/1999/02/22-rdf-syntax-ns#">
      <rdf:Description rdf:about=""/>
    </rdf:RDF>
  </x:xmpmeta>
  
  
  <?xpacket end="w"?></metadata>
  <defs>
    <style>
      .cls-1 {
      fill: #222;
      fill-rule: evenodd;
      }
    </style>
  </defs>
  <path id="_" data-name="“" class="cls-1" d="M635.888,242.861q-3.972,2.432-9.862,6.265a62.853,62.853,0,0,0-11.141,9.331,53.631,53.631,0,0,0-8.709,12.209,32.1,32.1,0,0,0-3.586,15.146q0,11.76,4.739,18.984t15.752,7.222q7.041,0,11.078-4.675a15.125,15.125,0,0,0,4.034-10.053q0-7.556-4.547-11.462t-12.486-3.906h-6.147a36.592,36.592,0,0,1,2.689-10.85,30.045,30.045,0,0,1,5.507-8.042,44.858,44.858,0,0,1,7.556-6.574q3.712-2.489,9.733-5.937Zm47.385,0q-3.972,2.432-9.862,6.265a62.853,62.853,0,0,0-11.141,9.331,53.631,53.631,0,0,0-8.709,12.209,32.1,32.1,0,0,0-3.586,15.146q0,11.76,4.739,18.984t15.752,7.222q7.041,0,11.078-4.675a15.125,15.125,0,0,0,4.034-10.053q0-7.556-4.547-11.462t-12.486-3.906H662.4a37.234,37.234,0,0,1,2.625-10.786,29.611,29.611,0,0,1,5.571-8.106,44.858,44.858,0,0,1,7.556-6.574q3.712-2.489,9.733-5.937Z" transform="translate(-602.594 -242.875)"/>
</svg>
