<svg xmlns="http://www.w3.org/2000/svg" xmlns:xlink="http://www.w3.org/1999/xlink" viewBox="0 0 147.4 147.4"><defs><style>.cls-1,.cls-3{fill:none;}.cls-2{clip-path:url(#clip-path);}.cls-3{stroke:#fff;stroke-linecap:round;stroke-linejoin:round;stroke-width:2.79px;}</style><clipPath id="clip-path" transform="translate(0 0)"><rect class="cls-1" width="147.4" height="147.4"/></clipPath></defs><title>button</title><g id="Livello_2" data-name="Livello 2"><g id="Livello_1-2" data-name="Livello 1"><g id="Disegno_9" data-name="Disegno 9"><g class="cls-2"><g class="cls-2"><path class="cls-3" d="M146,73.7A72.31,72.31,0,1,0,73.71,146,72.27,72.27,0,0,0,146,73.7Zm-8.87,0a63.44,63.44,0,1,0-63.43,63.44A63.41,63.41,0,0,0,137.14,73.7ZM96,90.28A5.77,5.77,0,1,0,90.28,96,5.77,5.77,0,0,0,96,90.28Zm-33.15,0A5.77,5.77,0,1,0,57.13,96,5.77,5.77,0,0,0,62.9,90.28ZM96,57.13a5.77,5.77,0,1,0-5.77,5.77A5.77,5.77,0,0,0,96,57.13Zm-33.15,0a5.77,5.77,0,1,0-5.77,5.77A5.77,5.77,0,0,0,62.9,57.13Z" transform="translate(0 0)"/></g></g></g></g></g></svg>