<svg xmlns="http://www.w3.org/2000/svg" xmlns:xlink="http://www.w3.org/1999/xlink" viewBox="0 0 58 58">
  <metadata><?xpacket begin="﻿" id="W5M0MpCehiHzreSzNTczkc9d"?>
    <x:xmpmeta xmlns:x="adobe:ns:meta/" x:xmptk="Adobe XMP Core 5.6-c138 79.159824, 2016/09/14-01:09:01">
     <rdf:RDF xmlns:rdf="http://www.w3.org/1999/02/22-rdf-syntax-ns#">
      <rdf:Description rdf:about=""/>
    </rdf:RDF>
  </x:xmpmeta>
  <?xpacket end="w"?></metadata>
  <defs>
    <style>
      .cls-1 {
      fill: #fff;
      fill-opacity: 1;
      stroke: #969696;
      stroke-linejoin: round;
      stroke-width: 1px;
      fill-rule: evenodd;
      filter: url(#filter);
      }
    </style>
    <filter id="filter" x="3173" y="994"  filterUnits="userSpaceOnUse">
      <feOffset result="offset" dx="2.121" dy="2.121" in="SourceAlpha"/>
      <feGaussianBlur result="blur"/>
      <feFlood result="flood" flood-opacity="1"/>
      <feComposite result="composite" operator="in" in2="blur"/>
      <feBlend result="blend" in="SourceGraphic"/>
    </filter>
  </defs>
  <g transform="translate(-3173.5 -994.5)" style="fill: #fff; filter: url(#filter)">
    <path id="Forma_2098" data-name="Forma 2098" class="cls-1" d="M3202.5,997a26.5,26.5,0,1,0,26.5,26.5A26.5,26.5,0,0,0,3202.5,997Zm-4.49,35.36c1.25-3.95,3.6-8.69,4.02-9.88,0.61-1.74-.46-2.51-3.84.46-0.22-.44-0.52-0.94-0.75-1.42,3.85-4.19,11.78-5.13,9.08,1.36-1.68,4.05-2.89,6.79-3.58,8.9-1,3.07,1.54,1.83,4.02-.47,0.34,0.56.45,0.73,0.79,1.37C3202.23,1037.93,3196.11,1038.39,3198.01,1032.36Zm10.47-18.04a2.872,2.872,0,0,1-3.89-.05,2.517,2.517,0,0,1,.37-3.67,2.849,2.849,0,0,1,3.88.05A2.507,2.507,0,0,1,3208.48,1014.32Z" style="stroke: inherit; filter: none; fill: inherit"/>
  </g>
  <use transform="translate(-3173.5 -994.5)" xlink:href="#Forma_2098" style="stroke: #969696; filter: none; fill: #FFF"/>
</svg>
