<?xml version="1.0" encoding="utf-8"?>
<!-- Generator: Adobe Illustrator 19.0.0, SVG Export Plug-In . SVG Version: 6.00 Build 0)  -->
<svg version="1.1" id="Layer_1" xmlns="http://www.w3.org/2000/svg" xmlns:xlink="http://www.w3.org/1999/xlink" x="0px" y="0px"
	viewBox="-273.5 370.5 53 53" style="enable-background:new -273.5 370.5 53 53;" xml:space="preserve">
	<style type="text/css">
		.st0{fill:#C8C8C8;}
		.st1{fill:#fff;}
	</style>
	<g transform="translate(-3173.5 -994.5)">
		<path id="Forma_2098" class="st0" d="M2926.5,1365c-14.6,0-26.5,11.9-26.5,26.5s11.9,26.5,26.5,26.5s26.5-11.9,26.5-26.5
			S2941.1,1365,2926.5,1365L2926.5,1365z M2922,1400.4c1.3-3.9,3.6-8.7,4-9.9c0.6-1.7-0.5-2.5-3.8,0.5c-0.2-0.4-0.5-0.9-0.8-1.4
			c3.9-4.2,11.8-5.1,9.1,1.4c-1.7,4.1-2.9,6.8-3.6,8.9c-1,3.1,1.5,1.8,4-0.5c0.3,0.6,0.4,0.7,0.8,1.4
			C2926.2,1405.9,2920.1,1406.4,2922,1400.4z M2932.5,1382.3c-1.1,1-2.8,1-3.9-0.1c-0.9-1-0.8-2.6,0.2-3.6c0,0,0.1-0.1,0.1-0.1
			c1.1-1,2.8-1,3.9,0c0.9,1,0.8,2.6-0.2,3.5C2932.6,1382.2,2932.5,1382.3,2932.5,1382.3z"/>
		</g>
		<g transform="translate(-3173.5 -994.5)">
			<path id="Forma_2098_1_" class="st1" d="M-247,370.5c-14.6,0-26.5,11.9-26.5,26.5c0,14.6,11.9,26.5,26.5,26.5s26.5-11.9,26.5-26.5
				C-220.5,382.4-232.4,370.5-247,370.5L-247,370.5z M-251.5,405.9c1.3-3.9,3.6-8.7,4-9.9c0.6-1.7-0.5-2.5-3.8,0.5
				c-0.2-0.4-0.5-0.9-0.8-1.4c3.9-4.2,11.8-5.1,9.1,1.4c-1.7,4.1-2.9,6.8-3.6,8.9c-1,3.1,1.5,1.8,4-0.5c0.3,0.6,0.4,0.7,0.8,1.4
				C-247.3,411.4-253.4,411.9-251.5,405.9z M-241,387.8c-1.1,1-2.8,1-3.9,0c-0.9-1-0.8-2.6,0.2-3.6c0,0,0.1-0.1,0.1-0.1
				c1.1-1,2.8-1,3.9,0c0.9,1,0.8,2.6-0.2,3.5C-240.9,387.7-241,387.8-241,387.8z"/>
			</g>
		</svg>
