<svg xmlns="http://www.w3.org/2000/svg" width="56" height="56" viewBox="0 0 56 56">
  <metadata><?xpacket begin="﻿" id="W5M0MpCehiHzreSzNTczkc9d"?>
<x:xmpmeta xmlns:x="adobe:ns:meta/" x:xmptk="Adobe XMP Core 5.6-c138 79.159824, 2016/09/14-01:09:01        ">
   <rdf:RDF xmlns:rdf="http://www.w3.org/1999/02/22-rdf-syntax-ns#">
      <rdf:Description rdf:about=""/>
   </rdf:RDF>
</x:xmpmeta>
                                                                                                    
                                                                                                    
                                                                                                    
                                                                                                    
                                                                                                    
                                                                                                    
                                                                                                    
                                                                                                    
                                                                                                    
                                                                                                    
                                                                                                    
                                                                                                    
                                                                                                    
                                                                                                    
                                                                                                    
                                                                                                    
                                                                                                    
                                                                                                    
                                                                                                    
                                                                                                    
                           
<?xpacket end="w"?></metadata>
<defs>
    <style>
      .cls-1 {
        fill: #757575;
        fill-rule: evenodd;
      }
    </style>
  </defs>
  <path class="cls-1" d="M42.61,16.388v3.444a1,1,0,0,1-1.015,1H38.177a1.009,1.009,0,0,1-1.013-1V16.388a1.006,1.006,0,0,1,1.013-1H41.6A1,1,0,0,1,42.61,16.388ZM29,33.884a4.734,4.734,0,1,0-4.732-4.734A4.731,4.731,0,0,0,29,33.884ZM57,29A28,28,0,1,1,29,1,28,28,0,0,1,57,29ZM45.333,24.917H36.11a8.316,8.316,0,1,1-14.257,0H12.667V38.907a6.5,6.5,0,0,0,6.512,6.426H38.905a6.428,6.428,0,0,0,6.428-6.426V24.917ZM28.979,35.554a6.4,6.4,0,1,0-6.41-6.407A6.411,6.411,0,0,0,28.979,35.554ZM45.333,19.093a6.428,6.428,0,0,0-6.428-6.426H22.194v6.806h-1.36V12.667h-1.36v6.806H18.11v-6.7a6.5,6.5,0,0,0-1.36.366v6.335H15.39V13.889a6.389,6.389,0,0,0-2.723,5.2v4.464H22.838a8.284,8.284,0,0,1,12.28,0H45.333V19.093Z" transform="translate(-1 -1)"/>
</svg>
