<svg xmlns="http://www.w3.org/2000/svg" viewBox="0 0 350.76 75.76"><defs><style>.cls-1{fill:#455668;}.cls-2{fill:#21a7e0;}</style></defs><title>tecfit_logo</title><g id="Livello_2" data-name="Livello 2"><g id="Layer_1" data-name="Layer 1"><path class="cls-1" d="M148.08,19H130V64.6h-10.6V19h-18V11.19h46.7Z"/><path class="cls-1" d="M189,40.37,153.13,51V52.3a4.89,4.89,0,0,0,2.4,4.57c1.08.58,3,.86,5.69.86h27.69V64.6H159.47q-7.62,0-11.24-2.3-4.58-2.71-4.58-8.62v-19q0-10.18,15-10.16h16.44c9.31,0,14,3.58,14,10.8Zm-9.57-3.89V35.9q0-4.57-7.46-4.58H161.65q-8.61,0-8.62,5.16v7.82Z"/><path class="cls-1" d="M231.86,64.6H210.62q-15.3,0-15.29-10.6V34.63q0-10.18,12.89-10.18h23.43v6.87H212.1c-2.73,0-4.64.36-5.75,1.09s-1.64,2.09-1.64,4.07V52.4q0,5.34,7.87,5.34h19.28Z"/><path class="cls-1" d="M242.73,52.17a5.25,5.25,0,0,0-4.18,1.93,6.46,6.46,0,0,0-1.61,4.38,6.11,6.11,0,0,0,1.67,4.25,5.54,5.54,0,0,0,4.22,1.86A5.44,5.44,0,0,0,247,62.72a6.61,6.61,0,0,0-.07-8.7A5.58,5.58,0,0,0,242.73,52.17Z"/><path class="cls-1" d="M258.75,14.06c-3.61,2.35-5.44,5.51-5.44,9.37V64.6h13V44.28H303V34.2H266.3V25.88c0-1.17,0-4.27,7.63-4.27H303V11.41h-32C265.65,11.41,261.63,12.27,258.75,14.06Z"/><rect class="cls-1" x="308.89" y="25.07" width="11.78" height="39.53"/><rect class="cls-1" x="309.1" y="11.41" width="11.35" height="9.4"/><polygon class="cls-1" points="338.88 25.1 338.88 11.15 327.1 11.15 327.1 64.6 338.88 64.6 338.88 34.22 350.75 34.22 350.75 25.1 338.88 25.1"/><path class="cls-2" d="M50.47,32.15l16.36-9.58a12.78,12.78,0,0,0,6.29-11V4.13A3.91,3.91,0,0,0,67.23.75L37.32,18.26a1.16,1.16,0,0,1-1.19,0L5.87.54A3.89,3.89,0,0,0,0,3.89V11.6A12.41,12.41,0,0,0,6.12,22.27l17.11,10a7.45,7.45,0,0,1,3.66,6.4V50a3.85,3.85,0,0,0,5.8,3.32l35-20.49V38a6.62,6.62,0,0,1-3.26,5.69l-34,19.9a7.23,7.23,0,0,0-3.55,6.2v.44a5.52,5.52,0,0,0,5.51,5.51h8.48a5.68,5.68,0,0,0,5.67-5.67V60.47L67.16,48.4a12.09,12.09,0,0,0,6-10.38V30.1a3.87,3.87,0,0,0-5.84-3.35L46.56,38.89A7.94,7.94,0,0,1,50.47,32.15ZM41.12,70.09a.24.24,0,0,1-.23.23H32.4a.07.07,0,0,1-.07-.07v-.44a1.76,1.76,0,0,1,.86-1.51l7.92-4.65Zm0-31.11v3.1l-8.79,5.15V38.69A12.89,12.89,0,0,0,26,27.59l-17.1-10a7,7,0,0,1-3.43-6v-5L33.38,23a6.61,6.61,0,0,0,6.69,0L67.68,6.8v4.8a7.3,7.3,0,0,1-3.6,6.27L47.72,27.46A13.38,13.38,0,0,0,41.12,39Z"/></g></g></svg>