<?xml version="1.0" encoding="utf-8"?>
<!-- Generator: Adobe Illustrator 21.0.0, SVG Export Plug-In . SVG Version: 6.00 Build 0)  -->
<svg version="1.1" id="Livello_1" xmlns="http://www.w3.org/2000/svg" xmlns:xlink="http://www.w3.org/1999/xlink" x="0px" y="0px"
	 viewBox="0 0 641.6 92.4" style="enable-background:new 0 0 641.6 92.4;" xml:space="preserve">
<style type="text/css">
	.st0{fill:#0E0F0E;}
</style>
<title>Risorsa 1</title>
<g id="Livello_2">
	<g id="Layer_1">
		<path class="st0" d="M594.7,90.7h16.2V64.8l5.9-14h0.2l9,39.8h15.6l-14.6-59l12.1-29.8h-14.5L611.2,39h-0.2V1.8h-16.2V90.7z
			 M537,90.7h16.2V52.4h3.9l7.6,38.2h16.4l-9.6-42c7.2-4.2,9.5-14.2,9.5-21.6c0-18.7-10.2-25.2-25.7-25.2H537L537,90.7z M553.2,14.7
			h2.5c5.5,0,9,2.8,9,12.4c0,6.4-2.2,12.4-8.2,12.4h-3.2L553.2,14.7z M474.8,90.7h13.6l2.2-19.7h13.1l2.4,19.7h15.6l-11-88.9h-23.5
			L474.8,90.7z M502.4,57.9h-10.1l5.1-42.5h0.2L502.4,57.9z M401.9,90.7h12V25.5h0.2L425,90.7h9l11-65.2h0.2v65.2h14.5V1.8h-21.1
			L431,47.3h-0.2l-7.3-45.6h-21.6V90.7z M313.7,64.9c0,12.2,3.5,27.5,20.9,27.5c14.6,0,22.4-10.9,22.4-24.5
			c0-25.8-29.5-31-29.5-46.1c0-4.9,2.2-8.1,6.1-8.1c6.5,0,6.5,8.4,6.5,13.4h14.5c-0.4-16-6-27.1-20.6-27.1c-13.7,0-21,10.9-21,24.2
			c0,26.4,29.5,30,29.5,45.8c0,3.6-1.9,8.6-7.2,8.6c-7,0-7-8.7-7-13.7L313.7,64.9z M255.2,90.7h16.2V52.4h3.9l7.6,38.2h16.4l-9.6-42
			c7.2-4.2,9.5-14.2,9.5-21.7c0-18.7-10.2-25.2-25.7-25.2h-18.2V90.7z M271.4,14.7h2.5c5.5,0,9,2.8,9,12.4c0,6.4-2.2,12.4-8.2,12.4
			h-3.2L271.4,14.7z M210.7,36.8c0-19.2,2.2-23.1,6-23.1s6,3.9,6,23.1v18.7c0,19.2-2.2,23.1-6,23.1s-6-3.9-6-23.1V36.8z M193,46.2
			c0,35.1,9.4,46.2,23.7,46.2s23.7-11.1,23.7-46.2S231.1,0,216.7,0S193,11.1,193,46.2 M148.1,90.7h37V76.9h-20.8V1.8h-16.2V90.7z
			 M112.9,90.7h16.2V1.8h-16.2L112.9,90.7z M50.9,90.7h13.6l2.2-19.7h13.1l2.4,19.7h15.6l-11-88.9H63.4L50.9,90.7z M78.5,57.9H68.4
			l5.1-42.5h0.2L78.5,57.9z M14,90.7h16.2V15.5h14V1.8H0v13.7h14V90.7z"/>
	</g>
</g>
</svg>
