<svg xmlns="http://www.w3.org/2000/svg" viewBox="0 0 32.38 34.25"><defs><style>.cls-1{isolation:isolate;}.cls-2{fill:#fff;}.cls-2,.cls-5{stroke:#000;stroke-linecap:round;stroke-linejoin:round;}.cls-2,.cls-4{stroke-width:0.67px;}.cls-3{fill:#b3b3b3;mix-blend-mode:multiply;}.cls-4{stroke:#fff;}.cls-5{fill:none;stroke-width:0.34px;}</style></defs><title>measurement02</title><g class="cls-1"><g id="Livello_2" data-name="Livello 2"><g id="Layer_1" data-name="Layer 1"><polygon class="cls-2" points="0.34 33.91 27.21 33.91 27.21 0.34 6.58 0.34 0.34 7.03 0.34 33.91"/><polygon class="cls-3" points="0.05 8.15 5.42 8.15 5.42 1.79 0.05 8.15"/><polygon class="cls-2" points="0.34 6.99 6.58 6.99 6.58 0.34 0.34 6.99"/><path class="cls-4" d="M18.52,7.79a13.42,13.42,0,0,1,13.53,10A18.56,18.56,0,0,0,18.52,12v3.74L12.83,10l5.69-5.69Z"/><polyline class="cls-5" points="24.18 24.96 24.18 31.21 3.3 31.21 3.3 24.96"/><line class="cls-5" x1="13.56" y1="31.21" x2="13.56" y2="25.14"/><line class="cls-5" x1="18.81" y1="31.21" x2="18.81" y2="27.46"/><line class="cls-5" x1="16.18" y1="31.21" x2="16.18" y2="29.15"/><line class="cls-5" x1="21.43" y1="31.21" x2="21.43" y2="29.15"/><line class="cls-5" x1="8.37" y1="31.21" x2="8.37" y2="27.46"/><line class="cls-5" x1="5.74" y1="31.21" x2="5.74" y2="29.15"/><line class="cls-5" x1="10.99" y1="31.21" x2="10.99" y2="29.15"/><path d="M2,19.35l-.13-.6.74-.65h1v4.69h-1V19.35Z"/><path d="M14.44,22.79H11.82V21.2l1.63-1.48V19H12.8v.5h-.94v-.74l.65-.65h1.92v2L12.8,21.53v.38h1.63Z"/><path d="M25,20.42v1.73l-.65.65H22.17V21.29h1v.62H24V20.85h-.43V20H24V19h-.84v.58h-1v-.82l.7-.64h2V20l-.53.46Z"/></g></g></g></svg>