<svg xmlns="http://www.w3.org/2000/svg" viewBox="0 0 47.43 49.49"><defs><style>.cls-1{fill:#fff;}.cls-1,.cls-3{stroke:#000;stroke-linecap:round;stroke-linejoin:round;stroke-width:0.67px;}.cls-2{opacity:0.2;}.cls-3{fill:none;}</style></defs><title>measurement03</title><g id="Livello_2" data-name="Livello 2"><g id="Layer_1" data-name="Layer 1"><path class="cls-1" d="M.34,47s4.72,2,13.69,2.16c8.38.2,13-2.16,13-2.16.29-7.8-2.33-16.57-.18-27.93l.08.08c4.58,6.27,4.26,11.8,4.13,24.6,0,0,.21,1.22,3.26,1.22,2.8,0,2.9-1.22,2.9-1.22.39-12.92.66-27.15-10.09-36.29l-.19,0a19.67,19.67,0,0,0-7-1.38,6.24,6.24,0,0,1-6.26,4.72A6.31,6.31,0,0,1,7.48,6a19.56,19.56,0,0,0-7,1.35"/><path class="cls-2" d="M8.32,24.37c7.47-3.44,9-2.16,9-2.55C16,23.39,15,24,16.87,23.88c1.41-.07,4.93.74,6,0a59.3,59.3,0,0,0-10.61,2.95,18,18,0,0,0-5.6,3.44c-2.15,2.29,9,2.55,10.25,2.55-2.89,0-7.09.39-10.24-.21-.78-.15-3-.37-3.54-1.17s1-2.17,2.53-3c3.35-1.75-2.73-1-3.81-.95C4.59,26.64,6,25.45,8.32,24.37Z"/><line class="cls-3" x1="28.2" y1="5.84" x2="33.18" y2="0.34"/><line class="cls-3" x1="39.5" y1="44.06" x2="47.09" y2="44.06"/><path class="cls-3" d="M31,3.15C45.78,14.29,43,44,43,44"/><polyline class="cls-3" points="39.89 40.29 43.22 43.43 46.18 40.29"/><polyline class="cls-3" points="35.76 3.02 31.18 3.15 31.31 7.47"/></g></g></svg>