<svg xmlns="http://www.w3.org/2000/svg" viewBox="0 0 71.01 54.91"><defs><style>.cls-1{fill:#7ebdc3;}.cls-2,.cls-3{fill:#fff;stroke-width:0.67px;}.cls-2,.cls-3,.cls-4{stroke:#000;stroke-linecap:round;stroke-linejoin:round;}.cls-3{fill-rule:evenodd;}.cls-4{fill:none;stroke-width:0.34px;}</style></defs><title>measurement04</title><g id="Livello_2" data-name="Livello 2"><g id="Layer_1" data-name="Layer 1"><rect class="cls-1" x="67.65" y="8.62" width="0.84" height="9.26"/><rect class="cls-1" x="20.27" y="12.18" width="43.11" height="2.13"/><polyline class="cls-1" points="20.67 17.05 15.44 13.25 20.67 9.45"/><polyline class="cls-1" points="62.81 9.45 68.03 13.25 62.81 17.05"/><rect class="cls-1" x="14.77" y="8.62" width="0.84" height="9.26"/><path class="cls-2" d="M8.95,15.24c-1,1.28-.94,4.32-.71,5.89.62,4.16,3.4,3,6.85,3a26.49,26.49,0,0,1,8.5,1.35A38.26,38.26,0,0,0,32.1,26.7c6.23.42,9.18-.68,12.21-.84,3.42-.19,6,.41,9.43.87a6.16,6.16,0,0,0,3.32,0c.68-.32,1.61-1.76,2.27-2,.9-.39,1.37-.36,2.41-.84.32-.15.54-.56,1-.27s-.09,1.17-.3,1.39a5.73,5.73,0,0,1-1.74,1.46,29.82,29.82,0,0,0,4.69,0c.5,0,4.69-.22,4.3,1.35,1.35.45,1.08,1.32.37,1.7.6.41.25,1.05-.51,1.22a1.51,1.51,0,0,0-.42.25s.56.44.08.84c-.84.72-3.29.88-4.88.93a31.07,31.07,0,0,1-6.93-.62c-3.7-.6-6.31.94-11.25,1.71-2.7.42-4.93-.1-7.58.42-7.75,1.52-8.33.71-13,1.27-3.54.42-5.05,2.1-5.39,5.3-.6,5.65-.56,10.44-1.18,13.81"/><path class="cls-3" d="M3.34,20.67c1.92.06,4-1.25,5.83-5.3.33-.73.48-1.61.76-2.2s.18-.65.67-1.19a2.46,2.46,0,0,0,.57-1.78c.13-1.74-.68-1.76-.75-2.46a8.47,8.47,0,0,0-.25-1.28C9.75,4.68,9.46,3,7.9,1.89A9,9,0,0,0,.34.69"/><line class="cls-4" x1="37.74" y1="28.97" x2="38.08" y2="31.66"/><line class="cls-4" x1="21.07" y1="37.81" x2="17.53" y2="41.35"/><path class="cls-4" d="M60.73,26.28a3.08,3.08,0,0,1-.84,3.28"/><line class="cls-4" x1="69.7" y1="27.83" x2="65.49" y2="27.92"/><line class="cls-4" x1="70.04" y1="29.39" x2="65.49" y2="29.43"/><line class="cls-4" x1="68.98" y1="30.82" x2="65.28" y2="30.86"/><path class="cls-4" d="M65.28,27a9.42,9.42,0,0,1-.42,4.88"/><path class="cls-4" d="M14,25.94c-.79.56-7,.51-8.53,2.19-.34.37-.45,1.12-1.91,1.06"/></g></g></svg>