<svg xmlns="http://www.w3.org/2000/svg" viewBox="0 0 31.18 35.34"><defs><style>.cls-1{isolation:isolate;}.cls-2,.cls-4{fill:none;stroke-width:0.34px;}.cls-2{stroke:gray;}.cls-3{fill:#fff;stroke-width:0.67px;}.cls-3,.cls-4{stroke:#000;}.cls-5{fill:#7ebdc3;mix-blend-mode:multiply;}</style></defs><title>Risorsa 1</title><g class="cls-1"><g id="Livello_2" data-name="Livello 2"><g id="Layer_1" data-name="Layer 1"><path class="cls-2" d="M5.71,8.88c1,9.83-.25,12.44-.17,16.51A25.68,25.68,0,0,0,14,26.73a18,18,0,0,0,8-1.33c.18-4.8-1.55-9.51-.23-16.51a9.1,9.1,0,0,1,1.37,2.33c.2.4,1,1,2.58.28,2-.84,1.62-2.18,1.62-2.18A17,17,0,0,0,22,1,12.59,12.59,0,0,0,17.59.17a3.84,3.84,0,0,1-3.85,2.91A3.89,3.89,0,0,1,9.94.17a12.71,12.71,0,0,0-4.4.88A17.22,17.22,0,0,0,.2,9.35s-.37,1.34,1.61,2.18c1.62.69,2.38.13,2.58-.28A17.29,17.29,0,0,1,5.71,8.88"/><polygon class="cls-3" points="30.84 35 16.08 35 16.08 25.05 12.88 21.95 16.08 18.75 16.08 14.59 30.84 14.59 30.84 35"/><line class="cls-4" x1="16.22" y1="19.25" x2="30.71" y2="19.25"/><line class="cls-4" x1="16.22" y1="29.89" x2="30.71" y2="29.89"/><path class="cls-4" d="M30.71,15"/><path class="cls-4" d="M16.22,15"/><polygon class="cls-5" points="30.84 24.55 16.21 24.55 13.48 22.06 16.21 19.2 30.84 19.2 30.84 24.55"/><line class="cls-4" x1="16.22" y1="24.57" x2="30.71" y2="24.57"/></g></g></g></svg>