<svg xmlns="http://www.w3.org/2000/svg" viewBox="0 0 24 22" width="60" height="60"><defs><style>.cls-1{fill:#7dbdc2;}</style></defs><title>personal-details</title><g id="Livello_2" data-name="Livello 2"><g id="Livello_1-2" data-name="Livello 1"><path class="cls-1" d="M14,17.6V18H4v-.42c0-1.11,0-1.75,1.32-2s2.79-.61,2.12-1.84C5.47,10.06,6.88,8,9,8s3.52,2,1.56,5.7c-.65,1.22.69,1.51,2.12,1.84S14,16.48,14,17.6ZM20,8H16v2h4Zm0,4H16v2h4Zm0,4H16v2h4ZM16,4V6h6V20H2V6H8V4H0V22H24V4ZM10,0V6h4V0Zm2,4a1,1,0,1,1,1-1A1,1,0,0,1,12,4Z"/></g></g></svg>