<svg xmlns="http://www.w3.org/2000/svg" xmlns:xlink="http://www.w3.org/1999/xlink" preserveAspectRatio="xMidYMid" width="25" height="24" viewBox="0 0 25 24">
  <defs>
    <style>
      .cls-1 {
        fill: #8b8b8b;
        fill-rule: evenodd;
      }
    </style>
  </defs>
  <path d="M18.430,5.981 L18.430,0.094 L0.923,0.094 L0.923,17.755 L6.758,17.755 L6.758,23.641 L24.266,23.641 L24.266,5.981 L18.430,5.981 ZM6.758,15.793 L2.868,15.793 L2.868,2.056 L16.485,2.056 L16.485,5.981 L6.758,5.981 L6.758,15.793 ZM22.320,21.679 L8.704,21.679 L8.704,7.944 L22.320,7.944 L22.320,21.679 ZM19.403,13.830 L16.485,13.830 L16.485,10.887 L14.539,10.887 L14.539,13.830 L11.622,13.830 L11.622,15.793 L14.539,15.793 L14.539,18.736 L16.485,18.736 L16.485,15.793 L19.403,15.793 L19.403,13.830 Z" class="cls-1"/>
</svg>
