<?xml version="1.0" encoding="UTF-8" standalone="no"?>
<!DOCTYPE svg PUBLIC "-//W3C//DTD SVG 1.1//EN" "http://www.w3.org/Graphics/SVG/1.1/DTD/svg11.dtd">
<svg xmlns="http://www.w3.org/2000/svg" xmlns:xlink="http://www.w3.org/1999/xlink" version="1.1" width="800" height="600" viewBox="0 0 800 600" xml:space="preserve">
<desc>Created with Fabric.js 1.7.6</desc>
<defs>
</defs>
	<g transform="translate(225.25 190.68) rotate(0.27) scale(2.9 2.9)">
		<text font-family="comic sans ms" font-size="43" font-style="italic" font-weight="bold" style="stroke: none; stroke-width: 1; stroke-dasharray: none; stroke-linecap: butt; stroke-linejoin: miter; stroke-miterlimit: 10; fill: rgb(125,189,194); fill-rule: nonzero; opacity: 1;">
			<tspan x="-49.5" y="-14.64" style="stroke: none; stroke-width: 0; stroke-dasharray: none; stroke-linecap: butt; stroke-linejoin: miter; stroke-miterlimit: 4; fill: rgb(125,189,194); fill-rule: ; opacity: 1;">S</tspan>
			<tspan x="-19.5" y="-14.64" style="stroke: none; stroke-width: 0; stroke-dasharray: none; stroke-linecap: butt; stroke-linejoin: miter; stroke-miterlimit: 4; fill: rgb(125,189,194); fill-rule: ; opacity: 1;">a</tspan>
			<tspan x="4.5" y="-14.64" style="stroke: none; stroke-width: 0; stroke-dasharray: none; stroke-linecap: butt; stroke-linejoin: miter; stroke-miterlimit: 4; fill: rgb(125,189,194); fill-rule: ; opacity: 1;">v</tspan>
			<tspan x="25.5" y="-14.64" style="stroke: none; stroke-width: 0; stroke-dasharray: none; stroke-linecap: butt; stroke-linejoin: miter; stroke-miterlimit: 4; fill: rgb(125,189,194); fill-rule: ; opacity: 1;">e</tspan>
			<tspan x="-67" y="41.73" style="stroke: none; stroke-width: 0; stroke-dasharray: none; stroke-linecap: butt; stroke-linejoin: miter; stroke-miterlimit: 4; fill: rgb(125,189,194); fill-rule: ; opacity: 1;">D</tspan>
			<tspan x="-36" y="41.73" style="stroke: none; stroke-width: 0; stroke-dasharray: none; stroke-linecap: butt; stroke-linejoin: miter; stroke-miterlimit: 4; fill: rgb(125,189,194); fill-rule: ; opacity: 1;">e</tspan>
			<tspan x="-12" y="41.73" style="stroke: none; stroke-width: 0; stroke-dasharray: none; stroke-linecap: butt; stroke-linejoin: miter; stroke-miterlimit: 4; fill: rgb(125,189,194); fill-rule: ; opacity: 1;">s</tspan>
			<tspan x="9" y="41.73" style="stroke: none; stroke-width: 0; stroke-dasharray: none; stroke-linecap: butt; stroke-linejoin: miter; stroke-miterlimit: 4; fill: rgb(125,189,194); fill-rule: ; opacity: 1;">i</tspan>
			<tspan x="21" y="41.73" style="stroke: none; stroke-width: 0; stroke-dasharray: none; stroke-linecap: butt; stroke-linejoin: miter; stroke-miterlimit: 4; fill: rgb(125,189,194); fill-rule: ; opacity: 1;">g</tspan>
			<tspan x="44" y="41.73" style="stroke: none; stroke-width: 0; stroke-dasharray: none; stroke-linecap: butt; stroke-linejoin: miter; stroke-miterlimit: 4; fill: rgb(125,189,194); fill-rule: ; opacity: 1;">n</tspan>
		</text>
	</g>
<path d="M 440.5 166.5 Q 440.5 166.5 441 166.5 Q 441.5 166.5 440.75 166 Q 440 165.5 440.5 167 Q 441 168.5 441.5 168.5 Q 442 168.5 442.5 169 Q 443 169.5 443.5 170 Q 444 170.5 444.5 171 Q 445 171.5 445.5 171.5 Q 446 171.5 446.5 172 Q 447 172.5 447.5 173 Q 448 173.5 448 174 Q 448 174.5 448.5 174.5 Q 449 174.5 450 176 Q 451 177.5 451.5 177.5 Q 452 177.5 453.5 178.5 Q 455 179.5 456 180.5 Q 457 181.5 457.5 182 Q 458 182.5 458.5 183.5 Q 459 184.5 459.5 185 Q 460 185.5 460.5 186.5 Q 461 187.5 462 188 Q 463 188.5 464 189 Q 465 189.5 466 190 Q 467 190.5 467 191 Q 467 191.5 467.5 191.5 Q 468 191.5 468.5 192.5 Q 469 193.5 470 194.5 Q 471 195.5 472 195.5 Q 473 195.5 474 196.5 Q 475 197.5 475.5 198 Q 476 198.5 476.5 199 Q 477 199.5 477.5 199.5 Q 478 199.5 479 200 Q 480 200.5 480 201 Q 480 201.5 480.5 202 Q 481 202.5 482 203 Q 483 203.5 483.5 204 Q 484 204.5 486 205.5 Q 488 206.5 488.5 207.5 Q 489 208.5 490 209 Q 491 209.5 493 211 Q 495 212.5 496 213 Q 497 213.5 497.5 213.5 Q 498 213.5 498.5 214.5 Q 499 215.5 499.5 215.5 Q 500 215.5 500 216 Q 500 216.5 500.5 216.5 Q 501 216.5 501.5 217 Q 502 217.5 503 218.5 Q 504 219.5 504.5 219.5 Q 505 219.5 506 220 Q 507 220.5 508.5 221.5 Q 510 222.5 510.5 223 Q 511 223.5 511.5 224 Q 512 224.5 513 225 Q 514 225.5 514.5 226 Q 515 226.5 515.5 227 Q 516 227.5 517 228 Q 518 228.5 518.5 229 Q 519 229.5 519.5 230 Q 520 230.5 520.5 230.5 Q 521 230.5 521.5 230.5 Q 522 230.5 522 231 Q 522 231.5 522.5 232 Q 523 232.5 523.5 233 Q 524 233.5 524.5 233.5 Q 525 233.5 525.5 234.5 Q 526 235.5 526.5 235.5 Q 527 235.5 527.5 236 Q 528 236.5 528 237 Q 528 237.5 529 238 Q 530 238.5 530.5 239 Q 531 239.5 531.5 239.5 Q 532 239.5 532.5 240 Q 533 240.5 534 241.5 Q 535 242.5 535.5 243 Q 536 243.5 536.5 243.5 Q 537 243.5 538 244.5 Q 539 245.5 539.5 246 Q 540 246.5 540.5 247 Q 541 247.5 541.5 248 Q 542 248.5 542.5 249 Q 543 249.5 543.5 249.5 Q 544 249.5 544 250 Q 544 250.5 544.5 250.5 Q 545 250.5 545.5 251 Q 546 251.5 546.5 252 Q 547 252.5 547.5 253 Q 548 253.5 548.5 254 Q 549 254.5 549.5 255 Q 550 255.5 550.5 256 Q 551 256.5 551.5 256.5 Q 552 256.5 552.5 257 Q 553 257.5 553.5 257.5 Q 554 257.5 554.5 258.5 Q 555 259.5 555.5 259.5 Q 556 259.5 557 260.5 Q 558 261.5 558.5 262 Q 559 262.5 559.5 263 Q 560 263.5 560.5 264 Q 561 264.5 561.5 265 Q 562 265.5 562.5 266 L 563 266.5" style="stroke: rgb(125,189,194); stroke-width: 33; stroke-dasharray: none; stroke-linecap: round; stroke-linejoin: round; stroke-miterlimit: 10; fill: none; fill-rule: nonzero; opacity: 1;" transform="translate(501.58 216.1) translate(-501.5757653858252, -216.10048094716166) " stroke-linecap="round"/>
<path d="M 562.5 266.5 Q 562.5 266.5 563 266.5 Q 563.5 266.5 563.25 267 Q 563 267.5 563.5 268 Q 564 268.5 564 269 Q 564 269.5 565 270 Q 566 270.5 566.5 270.5 Q 567 270.5 567.5 270.5 Q 568 270.5 568.5 271.5 Q 569 272.5 569.5 272.5 Q 570 272.5 570.5 273 Q 571 273.5 571.5 273.5 Q 572 273.5 572.5 274 Q 573 274.5 573.5 274.5 Q 574 274.5 574.5 275 Q 575 275.5 575.5 276 Q 576 276.5 576.5 276.5 Q 577 276.5 578 276.5 Q 579 276.5 579 277 Q 579 277.5 580 278 Q 581 278.5 581.5 279 Q 582 279.5 582.5 279.5 Q 583 279.5 583.5 279.5 Q 584 279.5 584.5 280 Q 585 280.5 586 281.5 Q 587 282.5 587.5 282.5 Q 588 282.5 588.5 283 Q 589 283.5 590 284 Q 591 284.5 591.5 285 Q 592 285.5 592.5 286 Q 593 286.5 593.5 286.5 Q 594 286.5 595 287 Q 596 287.5 597.5 288.5 Q 599 289.5 599 290 Q 599 290.5 600 291 Q 601 291.5 601.5 292 Q 602 292.5 602.5 293 Q 603 293.5 603.5 293.5 Q 604 293.5 604.5 294 Q 605 294.5 606 295 Q 607 295.5 607.5 296 L 608 296.5" style="stroke: rgb(125,189,194); stroke-width: 33; stroke-dasharray: none; stroke-linecap: round; stroke-linejoin: round; stroke-miterlimit: 10; fill: none; fill-rule: nonzero; opacity: 1;" transform="translate(585.25 281.5) translate(-585.25, -281.5) " stroke-linecap="round"/>
<path d="M 626.5 220.5 Q 626.5 220.5 627 220.5 Q 627.5 220.5 627.25 221.5 Q 627 222.5 627 223.5 Q 627 224.5 627 226 Q 627 227.5 627 229 Q 627 230.5 627 231 Q 627 231.5 627 233 Q 627 234.5 627.5 235 Q 628 235.5 628 236.5 Q 628 237.5 628 238 Q 628 238.5 628.5 240 Q 629 241.5 629 242 Q 629 242.5 629.5 243 Q 630 243.5 630 244.5 Q 630 245.5 630 246.5 Q 630 247.5 630 248 Q 630 248.5 630.5 250 Q 631 251.5 631 252.5 Q 631 253.5 631 255 Q 631 256.5 631 257.5 Q 631 258.5 631.5 260.5 Q 632 262.5 632 263 Q 632 263.5 632.5 264.5 Q 633 265.5 633 266.5 Q 633 267.5 633 269.5 Q 633 271.5 633.5 272.5 Q 634 273.5 634 274.5 Q 634 275.5 634.5 277 Q 635 278.5 635 279 Q 635 279.5 635 280.5 Q 635 281.5 635 282.5 Q 635 283.5 635 284.5 Q 635 285.5 635.5 286 Q 636 286.5 636 287.5 Q 636 288.5 636 289 Q 636 289.5 636 290.5 Q 636 291.5 636 292 Q 636 292.5 636 293.5 Q 636 294.5 636 295 Q 636 295.5 636 296.5 Q 636 297.5 636 298 Q 636 298.5 636 299 Q 636 299.5 636 300 Q 636 300.5 636 301 Q 636 301.5 636 302 Q 636 302.5 636 303 Q 636 303.5 636 304.5 Q 636 305.5 636 306 Q 636 306.5 636 307 Q 636 307.5 636 308 Q 636 308.5 636 309 Q 636 309.5 636 310 Q 636 310.5 636 311 Q 636 311.5 635.5 311.5 Q 635 311.5 634.5 311.5 Q 634 311.5 633.5 311.5 Q 633 311.5 632.5 311.5 Q 632 311.5 631.5 311.5 Q 631 311.5 630.5 311.5 Q 630 311.5 628.5 312 Q 627 312.5 627 313 Q 627 313.5 626.5 313.5 Q 626 313.5 625.5 313.5 Q 625 313.5 624.5 313.5 Q 624 313.5 623 313.5 Q 622 313.5 621.5 313.5 Q 621 313.5 620 313.5 Q 619 313.5 618 314 Q 617 314.5 616.5 314.5 Q 616 314.5 615.5 314.5 Q 615 314.5 614 314.5 Q 613 314.5 612.5 315 Q 612 315.5 611 315.5 Q 610 315.5 609.5 315.5 Q 609 315.5 608 315.5 Q 607 315.5 606 316 Q 605 316.5 604 316.5 Q 603 316.5 601.5 317 Q 600 317.5 597.5 317.5 Q 595 317.5 594.5 317.5 Q 594 317.5 592.5 318 Q 591 318.5 588.5 318.5 Q 586 318.5 584.5 318.5 Q 583 318.5 582.5 318.5 Q 582 318.5 581 318.5 Q 580 318.5 579.5 318.5 Q 579 318.5 578.5 318.5 Q 578 318.5 577 318.5 Q 576 318.5 575 319 Q 574 319.5 573.5 319.5 Q 573 319.5 572.5 319.5 Q 572 319.5 571 319.5 Q 570 319.5 569.5 319.5 Q 569 319.5 568.5 320 Q 568 320.5 567 320.5 Q 566 320.5 565 320.5 Q 564 320.5 563.5 321 Q 563 321.5 562.5 321.5 Q 562 321.5 561 321.5 Q 560 321.5 559.5 321.5 Q 559 321.5 558 321.5 Q 557 321.5 556.5 321.5 Q 556 321.5 555 321.5 Q 554 321.5 553.5 321.5 Q 553 321.5 552 322 Q 551 322.5 550 322.5 Q 549 322.5 547.5 323 Q 546 323.5 545 323.5 Q 544 323.5 542.5 323.5 Q 541 323.5 540 324 Q 539 324.5 538.5 324.5 Q 538 324.5 537 324.5 Q 536 324.5 534.5 325 Q 533 325.5 532 326 Q 531 326.5 530 326.5 Q 529 326.5 528.5 326.5 Q 528 326.5 526.5 326.5 Q 525 326.5 524.5 327 Q 524 327.5 522.5 327.5 Q 521 327.5 520.5 327.5 Q 520 327.5 519 327.5 Q 518 327.5 516.5 328 Q 515 328.5 514 328.5 Q 513 328.5 512.5 328.5 Q 512 328.5 511.5 328.5 L 511 328.5" style="stroke: rgb(125,189,194); stroke-width: 33; stroke-dasharray: none; stroke-linecap: round; stroke-linejoin: round; stroke-miterlimit: 10; fill: none; fill-rule: nonzero; opacity: 1;" transform="translate(573.5 274.5) translate(-573.5, -274.5) " stroke-linecap="round"/>
</svg>