<svg xmlns="http://www.w3.org/2000/svg"  viewBox="0 0 78.97 33">
  <metadata><?xpacket begin="﻿" id="W5M0MpCehiHzreSzNTczkc9d"?>
    <x:xmpmeta xmlns:x="adobe:ns:meta/" x:xmptk="Adobe XMP Core 5.6-c138 79.159824, 2016/09/14-01:09:01        ">
     <rdf:RDF xmlns:rdf="http://www.w3.org/1999/02/22-rdf-syntax-ns#">
      <rdf:Description rdf:about=""/>
    </rdf:RDF>
  </x:xmpmeta>
  
  
  <?xpacket end="w"?></metadata>
  <defs>
    <style>
      .cls-1 {
      fill: #7dbdc2;
      fill-rule: evenodd;
      }
    </style>
  </defs>
  <path id="rotate" class="cls-1" d="M1810.77,552.961a5.1,5.1,0,0,0-1.2-1.743,13.311,13.311,0,0,0-3.61-2.469,29.714,29.714,0,0,0-4.42-1.715c-0.76-.229-1.59-0.464-2.33-0.647-0.68-.175-1.38-0.338-2.07-0.488s-1.36-.259-2.05-0.39v2.458c0.51,0.1,1.02.18,1.52,0.29,0.67,0.145,1.34.3,2,.467,0.61,0.154,1.11.295,1.67,0.457a27.864,27.864,0,0,1,3.18,1.137,11.382,11.382,0,0,1,2.88,1.679,2.618,2.618,0,0,1,1.11,2.845,5.033,5.033,0,0,1-2.22,2.259,16.937,16.937,0,0,1-2.88,1.341c-0.98.364-1.98,0.669-2.97,0.943-0.45.115-1.05,0.28-1.65,0.415-0.58.142-1.17,0.269-1.76,0.392A105.207,105.207,0,0,1,1782.54,562c-0.26.018-.5,0.032-0.74,0.047l-0.39-5.546c-3.12,2.485-6.44,4.844-9.9,7.109,3.46,2.25,7.07,4.407,10.86,6.4l-0.39-5.556c0.24-.015.48-0.029,0.74-0.047a108.345,108.345,0,0,0,13.76-1.852c0.6-.129,1.21-0.259,1.82-0.408s1.21-.3,1.96-0.5a38.575,38.575,0,0,0,4.19-1.4,18.33,18.33,0,0,0,3.78-2.019,6.578,6.578,0,0,0,2.63-3.15A3.2,3.2,0,0,0,1810.77,552.961Zm-55.82,8.5c-1.69-.205-3.49-0.461-5.37-0.788-0.94-.164-1.9-0.346-2.88-0.558-0.49-.1-0.98-0.217-1.48-0.335-0.46-.117-0.94-0.235-1.41-0.355a28.107,28.107,0,0,1-5.12-1.835,8.839,8.839,0,0,1-2.35-1.6,2.388,2.388,0,0,1-.72-2.649,5.131,5.131,0,0,1,2.11-2.1,16.973,16.973,0,0,1,2.81-1.328c0.98-.371,1.99-0.69,3.03-0.974l0.8-.209,0.93-.228c0.63-.154,1.27-0.287,1.91-0.424,0.24-.048.49-0.085,0.73-0.133V545.5c-0.41.078-.83,0.141-1.24,0.224-0.66.14-1.31,0.278-1.97,0.438l-0.97.239-1.1.289a36.91,36.91,0,0,0-4.27,1.454,18.157,18.157,0,0,0-3.67,2,6.7,6.7,0,0,0-2.51,2.929,3.606,3.606,0,0,0,.83,3.574,10.761,10.761,0,0,0,2.89,2.315,29.684,29.684,0,0,0,7.08,2.756c0.64,0.168,1.11.3,1.64,0.416,0.51,0.123,1.02.242,1.53,0.346,1.01,0.219,2,.408,2.97.576,1.93,0.34,3.78.6,5.51,0.81,3.47,0.409,6.5.628,9,.756,2.22,0.113,3.98.151,5.3,0.175v-2.408c-1.29-.024-3.02-0.074-5.18-0.177C1761.33,562.082,1758.35,561.867,1754.95,561.465Zm5.15-10.477,3.88-4.527-0.04-.036a4.528,4.528,0,0,1-1.91.41,4.48,4.48,0,0,1-4.36-4.741c0-3.3,2.74-5.08,5.84-5.08a6.38,6.38,0,0,1,3.88,1.158,4.88,4.88,0,0,1,1.82,3.708,9.211,9.211,0,0,1-2.18,5.348l-2.9,3.76h-4.03Zm1.25-9a2.16,2.16,0,0,0,2.18,2.21,2.21,2.21,0,1,0,0-4.42A2.16,2.16,0,0,0,1761.35,541.987Zm20.24,2.282c0,3.493-1.71,7.254-5.77,7.254s-5.78-3.761-5.78-7.254,1.74-7.255,5.78-7.255S1781.59,540.775,1781.59,544.269Zm-8.03-.018c0,1.3.44,4.188,2.26,4.188s2.25-2.887,2.25-4.188-0.43-4.153-2.25-4.153S1773.56,542.95,1773.56,544.251Zm12.04-1.712a2.674,2.674,0,1,1,0-5.347A2.674,2.674,0,1,1,1785.6,542.539Zm0-3.832a1.159,1.159,0,1,0,1.19,1.159A1.17,1.17,0,0,0,1785.6,538.707Z" transform="translate(-1732.03 -537)"/>
</svg>
