<?xml version="1.0" encoding="utf-8"?>
<!-- Generator: Adobe Illustrator 19.0.0, SVG Export Plug-In . SVG Version: 6.00 Build 0)  -->
<svg version="1.1" id="Layer_1" xmlns="http://www.w3.org/2000/svg" xmlns:xlink="http://www.w3.org/1999/xlink" x="0px" y="0px"
	 viewBox="-297 389 16 16" style="enable-background:new -297 389 16 16;" xml:space="preserve">
<style type="text/css">
	.st0{fill:#FFFFFF;}
</style>
<path id="Forma_2086" class="st0" d="M-281,402.9l-4.3-4.2c0.6-1,1-2.2,1-3.4c0-3.5-2.8-6.4-6.3-6.4c-3.5,0-6.4,2.8-6.4,6.3
	s2.8,6.4,6.3,6.4c1.2,0,2.3-0.3,3.3-0.9l4.3,4.3L-281,402.9z M-294.6,395.3c0-2.2,1.8-4,4-4c2.2,0,4,1.8,4,4s-1.8,4-4,4c0,0,0,0,0,0
	C-292.8,399.3-294.6,397.5-294.6,395.3z"/>
</svg>
