<?xml version="1.0" encoding="utf-8"?>
<!-- Generator: Adobe Illustrator 19.0.0, SVG Export Plug-In . SVG Version: 6.00 Build 0)  -->
<svg version="1.1" id="Layer_1" xmlns="http://www.w3.org/2000/svg" xmlns:xlink="http://www.w3.org/1999/xlink" x="0px" y="0px"
  viewBox="-288 370 35 54" style="enable-background:new -288 370 35 54;" xml:space="preserve">
  <style type="text/css">
   .st0{fill:#919191;}
 </style>
 <path id="Forma_1048" class="st0" d="M-270.4,403c-1.8,0-3.3,1.5-3.3,3.3c0,0.8,0.3,1.6,0.9,2.3v3.5c0,1.3,1,2.3,2.3,2.3
   s2.3-1,2.3-2.3v-3.4c0.7-0.6,1.1-1.4,1-2.3C-267.1,404.6-268.5,403.1-270.4,403C-270.3,403-270.3,403-270.4,403z M-269.6,407.5
   l-0.4,0.3v4.3c0,0.3-0.2,0.5-0.4,0.5s-0.5-0.2-0.5-0.4c0,0,0-0.1,0-0.1v-4.2l-0.3-0.3c-0.4-0.3-0.6-0.8-0.6-1.2
   c0-0.8,0.7-1.5,1.5-1.5c0,0,0,0,0,0c0.8,0,1.4,0.6,1.4,1.4c0,0,0,0,0,0.1C-268.9,406.8-269.2,407.2-269.6,407.5z M-256.3,393.6v-9.3
   c0-7.8-6.3-14.2-14.1-14.2s-14.2,6.3-14.2,14.1c0,0,0,0.1,0,0.1v9.3c-1.9,0.2-3.3,1.8-3.3,3.7v22.9c0,2.1,1.7,3.7,3.8,3.7h27.6
   c2,0,3.6-1.6,3.6-3.6c0,0,0-0.1,0-0.1v-22.9C-253,395.4-254.4,393.8-256.3,393.6L-256.3,393.6z M-282.9,384.3
   c0-6.8,5.6-12.4,12.4-12.4c6.8,0,12.4,5.6,12.4,12.4v9.3h-1.8v-9.3c0-5.9-4.7-10.6-10.6-10.6c-5.9,0-10.6,4.7-10.6,10.6c0,0,0,0,0,0
   v9.3h-1.8V384.3z M-261.7,384.3v9.3h-17.6v-9.3c0-4.9,3.9-8.8,8.8-8.8S-261.7,379.4-261.7,384.3L-261.7,384.3z M-254.7,420.2
   c0,1.1-0.9,2-2,2h-27.6c-1.1,0-2-0.9-2-2v-23c0-1.1,0.9-2,2-2h27.6c1.1,0,2,0.9,2,2V420.2L-254.7,420.2z"/>
 </svg>
