<?xml version="1.0" encoding="utf-8"?>
<!-- Generator: Adobe Illustrator 19.0.0, SVG Export Plug-In . SVG Version: 6.00 Build 0)  -->
<svg version="1.1" id="Livello_1" xmlns="http://www.w3.org/2000/svg" xmlns:xlink="http://www.w3.org/1999/xlink" x="0px" y="0px"
	 viewBox="-238.4 326.9 93.1 158.9" style="enable-background:new -238.4 326.9 93.1 158.9;" xml:space="preserve">
<style type="text/css">
	.st0{fill:#7DBDC2;}
</style>
<title>start_here_mobile</title>
<g>
	<g id="Livello_1-2">
		<path class="st0" d="M-217.2,485.1l14.8-20.9c0.8-1.1-2.1-1.6-3-0.8c-2.7,2.4-5.1,5-7.4,7.7c5.9-15.1,11.5-30.2,16.7-45.2
			c0.4-1.1-2.9-1.4-3.4-0.1c-5.3,15.4-11,30.9-17.2,46.3c-0.2-2.3-0.6-4.6-1.2-6.9c-0.2-0.8-3.3-1.1-3.4,0.1l-0.6,19.6
			c0,0.7,2.1,1.3,3,0.7C-218.2,485.8-217.7,485.5-217.2,485.1z"/>
	</g>
	<g>
		<path class="st0" d="M-219.4,340.4c0,1.9-0.8,3.3-1.5,4.2c-0.4,0.5-0.5,0.6-0.7,0.6c-0.6,0-1.4-0.4-1.8-0.7
			c-0.5-0.4-0.8-0.9-0.8-1.6c0-0.1,0.1-0.3,0.2-0.4c0.5-0.8,0.9-1.5,0.9-2.3c0-0.4-0.2-1-0.4-1.4c-0.2-0.4-0.7-0.7-1.1-0.7
			c-0.4,0-2.7,2.9-3.1,5.2c-0.1,0.4-0.1,0.7-0.1,1.3c0,0.3,0.3,2.6,0.4,3.2c0.5,3.8,1.6,9.5,1.6,11.5c0,0.4-0.2,0.7-0.4,0.9
			c-0.9,0.9-1.8,1.8-3.2,1.8c-0.5,0-1-0.1-1.3-0.2c-3.3-1.4-5.7-4-7.4-6.8c-0.2-0.3-0.3-0.6-0.3-0.8c0-0.8,0.8-1.9,1.8-1.9
			s1.5,0.1,1.9,0.7c1.2,1.6,1.8,3.5,3.3,4.9c0.5,0.5,0.8,0.6,1,0.6c0.3,0,0.5-0.2,0.5-0.4c0-0.2,0-0.3-0.3-1.6
			c-0.7-3.3-1.6-10.9-1.6-11.9c0-1.4,0.6-4.3,1.8-6.2c1.5-2.3,3.5-3.2,4.5-3.2c2.8,0,3.9,0.7,5,1.8
			C-219.7,337.8-219.4,339.4-219.4,340.4z"/>
		<path class="st0" d="M-210,339.2c-0.5,1.1-1.2,3-1.2,3.1c0,0.1,0.1,0.2,0.2,0.2c0.2,0,0.8-0.1,1.3-0.2c2.2-0.5,5.1-1.5,6.8-2.5
			c0.3-0.2,0.5-0.3,0.6-0.3c0.9,0,2.5,0.7,2.5,1.3c0,0.7-0.6,1.5-1.7,1.9c-1.4,0.6-1.4,0.7-2.3,1.1c-2.5,1-6.8,1.9-7.8,2.3
			c-0.5,0.2-0.8,0.4-1,0.8c-0.4,0.7-0.7,1.7-0.9,2.4c-0.2,0.6-0.5,1.1-0.6,1.6c-0.3,1.7-2,6-2.3,8.5c-0.1,0.5-0.6,1.8-1.3,2.1
			c-0.2,0.1-0.6,0.2-0.8,0.2c-0.6,0-1.4-0.3-1.8-0.6c-0.4-0.3-0.6-0.8-0.6-1.2s0.1-1.1,0.2-1.5c1.3-3.7,2.2-8.1,3.8-12
			c0.1-0.2,0.1-0.3,0.1-0.4s-0.1-0.2-0.3-0.3c-1.8-0.9-2.1-2.2-3.3-3.2c-0.3-0.2-0.3-0.5-0.3-0.6c0-0.4,0.2-0.5,0.6-0.7
			c0.3-0.2,0.6-0.3,1-0.3c1.1,0,2.4,0.8,3.3,0.8c0.5,0,0.8-0.3,0.9-0.7c0.2-0.6,0.4-1.3,0.8-2.4c1.2-3.1,2.6-7,4.3-10.7
			c0.3-0.7,0.4-0.7,0.6-0.7c0.8,0,0.9-0.3,1.4-0.3s1.3,0.2,1.9,0.4c0.3,0.1,0.5,0.2,0.5,0.4c0,0.1,0,0.3-0.1,0.6
			C-205.9,332.3-208.3,335.7-210,339.2z"/>
		<path class="st0" d="M-184.6,339.5c0.3,0,1,0.1,1.4,0.7c0.1,0.2,0.1,0.2,0.1,0.3c0,0.2-0.1,0.4-0.2,0.6c-2.2,3-4.9,6.8-5.9,10.7
			c-0.4,1.4-0.7,2.9-0.7,4.5c0,1.3,0.3,2.6,1.1,3.8c0,0.1,0.1,0.2,0.1,0.3s-0.2,0.6-1.1,0.7c-0.3,0.1-0.7,0.2-1,0.2
			c-0.8,0-1.9-0.4-2.2-1c-0.7-1.5-0.9-2.9-0.9-4.4s0.2-2.4,0.2-2.5c0-0.2,0-0.3-0.2-0.3s-0.7,0.4-1.2,0.9l-2.7,2.5
			c-2.6,2.5-4.3,3.2-6,3.8c-0.3,0.1-0.6,0.2-0.8,0.2c-0.6,0-1.2-0.4-3.5-2.3c-0.3-0.2-1.1-1.1-1.1-3c0-1.7,0.6-3.8,3-7.5
			c3-4.5,5.8-6.5,7.3-7.6c2.5-1.8,5.1-3.1,8.1-4c0.4-0.1,0.8-0.2,1.1-0.2c1.2,0,2.2,0.6,3.1,1.5c0.3,0.3,0.7,0.7,0.8,1
			C-185.6,339.1-185.2,339.5-184.6,339.5z M-190.6,339.7c-4.8,2.5-8.5,5.3-11.4,8.8c-2.1,2.6-3.8,5.6-3.8,7c0,0.6,0.2,1.4,1.1,1.4
			c0.4,0,1.6-0.6,2.5-1.4c4.7-4.4,10-7.8,12.6-12.6c0.4-0.7,0.9-1.4,1.5-1.9c0.2-0.2,0.3-0.5,0.3-0.8c0-0.4-0.3-1-1.2-1
			C-189.2,339.2-190,339.4-190.6,339.7z"/>
		<path class="st0" d="M-175.2,341.2c0,0.6-0.1,1.1-0.3,1.7c-0.2,0.6-0.2,0.7-0.2,0.8c0,0.2,0,0.2,0.2,0.2c0.1,0,0.3-0.1,0.7-0.4
			c2.8-2.1,5.2-3.5,7-4.1c0.2-0.1,0.5-0.1,0.6-0.1c1.4,0,2.8,0.4,3.7,1.4c0.2,0.2,0.4,0.6,0.4,0.9c0,1.6-1.4,2.2-1.8,2.2
			c-0.8,0-1.6-0.5-2.3-0.5c-0.2,0-0.4,0-0.8,0.2c-5.5,2.6-11,7.1-12.8,14.5c-0.4,1.5-0.9,2.2-1.3,2.4c-0.3,0.3-0.7,0.5-0.9,0.5
			c-0.8-0.1-1.2-0.7-1.5-1.1c-0.5-0.5-0.9-1.3-1-1.9c0-1.7,2.1-3.4,2.7-5.3c1.3-3.8,2.7-7.6,3.5-11.7c0-0.5,0.1-0.7,0.1-0.8
			c0-0.3-0.4-0.7-0.5-1.2c0-0.4,0.8-1.1,2-1.1c0.7,0,1.5,0.3,1.7,0.6C-175.5,339.1-175.2,340-175.2,341.2z"/>
		<path class="st0" d="M-158.4,339.2c-0.5,1.1-1.2,3-1.2,3.1c0,0.1,0.1,0.2,0.2,0.2c0.2,0,0.8-0.1,1.3-0.2c2.2-0.5,5.1-1.5,6.8-2.5
			c0.3-0.2,0.5-0.3,0.6-0.3c0.9,0,2.5,0.7,2.5,1.3c0,0.7-0.6,1.5-1.7,1.9c-1.4,0.6-1.4,0.7-2.3,1.1c-2.5,1-6.8,1.9-7.8,2.3
			c-0.5,0.2-0.8,0.4-1,0.8c-0.4,0.7-0.7,1.7-0.9,2.4c-0.2,0.6-0.5,1.1-0.6,1.6c-0.3,1.7-2,6-2.3,8.5c-0.1,0.5-0.6,1.8-1.3,2.1
			c-0.2,0.1-0.6,0.2-0.8,0.2c-0.6,0-1.4-0.3-1.8-0.6c-0.4-0.3-0.6-0.8-0.6-1.2s0.1-1.1,0.2-1.5c1.3-3.7,2.2-8.1,3.8-12
			c0.1-0.2,0.1-0.3,0.1-0.4s-0.1-0.2-0.3-0.3c-1.8-0.9-2.1-2.2-3.3-3.2c-0.3-0.2-0.3-0.5-0.3-0.6c0-0.4,0.2-0.5,0.6-0.7
			c0.3-0.2,0.6-0.3,1-0.3c1.1,0,2.4,0.8,3.3,0.8c0.5,0,0.8-0.3,0.9-0.7c0.2-0.6,0.4-1.3,0.8-2.4c1.2-3.1,2.6-7,4.3-10.7
			c0.3-0.7,0.4-0.7,0.6-0.7c0.8,0,0.9-0.3,1.4-0.3s1.3,0.2,1.9,0.4c0.3,0.1,0.5,0.2,0.5,0.4c0,0.1,0,0.3-0.1,0.6
			C-154.3,332.3-156.7,335.7-158.4,339.2z"/>
		<path class="st0" d="M-219.7,409.6c-0.3,0-0.7-0.1-1.5-0.4c-1.9-0.7-2.7-2.3-2.7-4.8c0-1.6,0.3-3.4,1-5.7c0.7-2.2,1.3-3.7,1.9-5.2
			c0.2-0.4,0.2-0.5,0.2-0.6s-0.1-0.1-0.1-0.1c-0.1,0-0.3,0.2-0.7,0.6c-3.4,3.9-6.9,9.8-9.9,13.3c-0.3,0.3-0.3,0.4-0.6,0.5
			c-0.5,0.3-1.2,0.7-1.9,0.7c-0.3,0-1.8-0.6-2.6-1.4c-0.2-0.2-0.2-0.4-0.2-0.6c0-0.6,0.3-0.5,0.5-1.4c1.6-6.7,5.3-14,9.6-22.6
			c2.1-4.3,5-8.9,7.4-13.9c0.3-0.6,0.8-0.7,1.3-0.7s0.8,0.1,1.1,0.1c0.5,0,1,0.4,1.4,0.8c0.4,0.4,0.5,0.6,0.5,1.3
			c0,1.3-1.1,2.1-2.4,3.7c-0.5,0.6-0.6,0.8-1,1.4c-4.6,6.3-8.6,16.6-12.3,24.6c-0.4,0.9-0.5,1-0.5,1s0,0.1,0.1,0.1
			c0.1,0,0.1,0,0.4-0.4c3.9-5.6,7.6-10,11.3-14c0.7-0.8,1-1,1.4-1.2c0.5-0.2,0.9-0.3,1.2-0.3c0.5,0,1.5,0.2,1.9,0.4
			c0.4,0.2,0.8,0.6,0.8,1c0,1.5-0.6,2.5-1.5,4c-0.7,1.2-0.9,2.1-1.3,3.1c-1.4,3.2-2.6,7.4-2.6,10.8c0,2.4,0.5,2.9,1.3,3.3
			c0.3,0.2,0.9,0.2,1.3,0.3c0.2,0.1,0.4,0.3,0.4,0.4c0,0.2-0.2,0.4-0.3,0.7c-0.2,0.4-0.6,0.6-1,0.7
			C-218.6,409.3-219.1,409.6-219.7,409.6z"/>
		<path class="st0" d="M-205.8,408.5c-0.6,0-1.1-0.1-1.9-0.4c-1.1-0.4-2.9-1.2-3.2-1.4c-1-0.6-2-1.8-2.5-3.5c-0.4-1-0.6-2.9-0.6-3.9
			c0-0.5,0.1-1,0.3-1.7c1.4-5.2,4.9-9.6,8.7-13.7c0.9-0.9,2.9-2.3,5.4-2.3c1.4,0,2.1,0.2,3.1,0.6c0.6,0.2,1.6,1.1,1.6,3.1
			c0,1.3-0.6,2.4-1.2,3.6c-0.5,1-0.9,1.6-1.6,2.4c-3.5,3.9-7.4,8.3-11.7,10.7c-0.3,0.2-0.3,0.3-0.3,0.4c0,0.8,0.8,1.9,1.2,2.1
			c0.6,0.3,1.1,0.4,1.6,0.4c0.9,0,1.6-0.2,3.9-1.4c3.5-1.9,5.6-4.6,8.7-6.5c0.6-0.4,0.8-0.4,1-0.4c0.3,0,1,0.5,1,1s-0.1,0.5-0.1,0.7
			c0,0.2,0,0.5-0.3,0.7c-2.4,2.1-3.5,4.6-11.2,8.9C-204.9,408.5-205.2,408.5-205.8,408.5z M-199.3,385.4c0-0.4,0-0.6-0.3-0.6
			s-0.6,0.2-1.1,0.5c-0.6,0.4-0.5,0.2-1,0.7c-3.3,2.9-6.8,7.1-7.9,11.6c0,0.2,0.1,0.3,0.1,0.3c0.1,0,0.2-0.1,0.4-0.2
			c3-2.3,5.5-5.1,7.7-7.8c0.8-0.9,0.6-1.1,1.2-2.1C-199.7,387-199.3,386.3-199.3,385.4z"/>
		<path class="st0" d="M-187.4,388.5c0,0.6-0.1,1.1-0.3,1.7c-0.2,0.6-0.2,0.7-0.2,0.8c0,0.2,0,0.2,0.2,0.2c0.1,0,0.3-0.1,0.7-0.4
			c2.8-2.1,5.2-3.5,7-4.1c0.2-0.1,0.5-0.1,0.6-0.1c1.4,0,2.8,0.4,3.7,1.4c0.2,0.2,0.4,0.6,0.4,0.9c0,1.6-1.4,2.2-1.8,2.2
			c-0.8,0-1.6-0.5-2.3-0.5c-0.2,0-0.4,0-0.8,0.2c-5.5,2.6-11,7.1-12.8,14.5c-0.4,1.5-0.9,2.2-1.3,2.4c-0.3,0.3-0.7,0.5-0.9,0.5
			c-0.8-0.1-1.2-0.7-1.5-1.1c-0.5-0.5-0.9-1.3-1-1.9c0-1.7,2.1-3.4,2.7-5.3c1.3-3.8,2.7-7.6,3.5-11.7c0.1-0.5,0.1-0.7,0.1-0.8
			c0-0.3-0.4-0.7-0.5-1.2c0-0.4,0.8-1.1,2-1.1c0.7,0,1.5,0.3,1.7,0.6C-187.7,386.4-187.4,387.3-187.4,388.5z"/>
		<path class="st0" d="M-172.6,408.5c-0.6,0-1.1-0.1-1.9-0.4c-1.1-0.4-2.9-1.2-3.2-1.4c-1-0.6-2-1.8-2.5-3.5c-0.4-1-0.6-2.9-0.6-3.9
			c0-0.5,0.1-1,0.3-1.7c1.4-5.2,4.9-9.6,8.7-13.7c0.9-0.9,2.9-2.3,5.4-2.3c1.4,0,2.1,0.2,3.1,0.6c0.6,0.2,1.6,1.1,1.6,3.1
			c0,1.3-0.6,2.4-1.2,3.6c-0.5,1-0.9,1.6-1.6,2.4c-3.5,3.9-7.4,8.3-11.7,10.7c-0.3,0.2-0.3,0.3-0.3,0.4c0,0.8,0.8,1.9,1.2,2.1
			c0.6,0.3,1.1,0.4,1.6,0.4c0.9,0,1.6-0.2,3.9-1.4c3.5-1.9,5.6-4.6,8.7-6.5c0.6-0.4,0.8-0.4,1-0.4c0.3,0,1,0.5,1,1s-0.1,0.5-0.1,0.7
			c0,0.2,0,0.5-0.3,0.7c-2.4,2.1-3.5,4.6-11.2,8.9C-171.7,408.5-172,408.5-172.6,408.5z M-166.1,385.4c0-0.4,0-0.6-0.3-0.6
			s-0.6,0.1-1.1,0.5c-0.6,0.4-0.5,0.2-1,0.7c-3.3,2.9-6.8,7.1-7.9,11.6c0,0.2,0.1,0.3,0.1,0.3c0.1,0,0.2-0.1,0.4-0.2
			c3-2.3,5.5-5.1,7.7-7.8c0.8-0.9,0.6-1.1,1.2-2.1C-166.5,387-166.1,386.3-166.1,385.4z"/>
		<path class="st0" d="M-153.2,404.5c0,0.5,0,1-0.4,1.9c-0.4,0.9-0.8,2-1.6,2c-0.4,0-0.8,0.1-2,0.1c-0.8,0-1.6-2.2-1.6-3.1
			c0-0.6,0.1-0.8,0.5-1.4c0.2-0.4,0.2-1.2,1.1-1.2c1.4,0,1.9,1,3.3,1.1C-153.3,403.8-153.2,404.1-153.2,404.5z M-145.3,377.5
			c0,1.9-1.1,3.3-1.6,4.8c-1.8,5.6-2.8,10.7-5.1,15.9c-0.2,0.5-0.3,0.6-0.7,0.6c-0.7,0-1-0.4-1.1-0.6c-0.3-1.3-1.4-1.5-1.4-2.2
			c0-0.4,0-0.5,0.2-0.9c0.4-0.9,0.4-1.3,0.6-2.2c1.2-4.9,2.6-8.8,3.4-13.8c0.3-1.6,0.7-4,2.2-4c0.4,0,0.7,0.4,1.1,0.5
			c0.7,0.2,0.7,0.6,1.1,0.7C-146,376.4-145.3,377-145.3,377.5z"/>
	</g>
</g>
</svg>
