<?xml version="1.0" encoding="utf-8"?>
<!-- Generator: Adobe Illustrator 19.0.0, SVG Export Plug-In . SVG Version: 6.00 Build 0)  -->
<svg version="1.1" id="Livello_1" xmlns="http://www.w3.org/2000/svg" xmlns:xlink="http://www.w3.org/1999/xlink" x="0px" y="0px"
	 viewBox="-202 310.1 196.3 152.1" style="enable-background:new -202 310.1 196.3 152.1;" xml:space="preserve">
<style type="text/css">
	.st0{fill:#7DBDC2;}
</style>
<title>Risorsa 1</title>
<g>
	<g id="Livello_2">
		<g id="Livello_1-2">
			<path class="st0" d="M-201.7,317l25.8,36.4c1.3,1.9,4.7-2,3.9-4c-2.2-5.7-4.8-11.1-7.9-16.3c22.6,19.2,45.5,37.8,68.7,56
				c1.7,1.3,5-3.4,3-5c-23.7-18.6-47.2-37.8-70.3-57.5c4.4,1.3,9,2.2,13.5,2.9c1.6,0.2,4.7-4.3,2.5-5.1l-35.2-14.2
				c-1.3-0.5-4.1,2.2-3.8,4C-202.1,315-202.2,316.1-201.7,317z"/>
		</g>
	</g>
	<g>
		<path class="st0" d="M-79.8,392.9c0,1.9-0.8,3.3-1.5,4.2c-0.4,0.5-0.5,0.6-0.7,0.6c-0.6,0-1.4-0.4-1.8-0.7
			c-0.5-0.4-0.8-0.9-0.8-1.6c0-0.1,0.1-0.3,0.2-0.4c0.5-0.8,0.9-1.5,0.9-2.3c0-0.4-0.2-1-0.4-1.4c-0.2-0.4-0.7-0.7-1.1-0.7
			s-2.7,2.9-3.1,5.2c-0.1,0.4-0.1,0.7-0.1,1.3c0,0.3,0.3,2.6,0.4,3.2c0.5,3.8,1.6,9.5,1.6,11.5c0,0.4-0.2,0.7-0.4,0.9
			c-0.9,0.9-1.8,1.8-3.2,1.8c-0.5,0-1-0.1-1.3-0.2c-3.3-1.4-5.7-4-7.4-6.8c-0.2-0.3-0.3-0.6-0.3-0.8c0-0.8,0.8-1.9,1.8-1.9
			s1.5,0.1,1.9,0.7c1.2,1.6,1.8,3.5,3.3,4.9c0.5,0.5,0.8,0.6,1,0.6c0.3,0,0.5-0.2,0.5-0.4c0-0.2,0-0.3-0.3-1.6
			c-0.7-3.3-1.6-10.9-1.6-11.9c0-1.4,0.6-4.3,1.8-6.2c1.5-2.3,3.5-3.2,4.5-3.2c2.8,0,3.9,0.7,5,1.8
			C-80.1,390.3-79.8,391.9-79.8,392.9z"/>
		<path class="st0" d="M-70.4,391.8c-0.5,1.1-1.2,3-1.2,3.1s0.1,0.2,0.2,0.2c0.2,0,0.8-0.1,1.3-0.2c2.2-0.5,5.1-1.5,6.8-2.5
			c0.3-0.2,0.5-0.3,0.6-0.3c0.9,0,2.5,0.7,2.5,1.3c0,0.7-0.6,1.5-1.7,1.9c-1.4,0.6-1.4,0.7-2.3,1.1c-2.5,1-6.8,1.9-7.8,2.3
			c-0.5,0.2-0.8,0.4-1,0.8c-0.4,0.7-0.7,1.7-0.9,2.4c-0.2,0.6-0.5,1.1-0.6,1.6c-0.3,1.7-2,6-2.3,8.5c-0.1,0.5-0.6,1.8-1.3,2.1
			c-0.2,0.1-0.6,0.2-0.8,0.2c-0.6,0-1.4-0.3-1.8-0.6c-0.4-0.3-0.6-0.8-0.6-1.2s0.1-1.1,0.2-1.5c1.3-3.7,2.2-8.1,3.8-12
			c0.1-0.2,0.1-0.3,0.1-0.4c0-0.1-0.1-0.2-0.3-0.3c-1.8-0.9-2.1-2.2-3.3-3.2c-0.3-0.2-0.3-0.5-0.3-0.6c0-0.4,0.2-0.5,0.6-0.7
			c0.3-0.2,0.6-0.3,1-0.3c1.1,0,2.4,0.8,3.3,0.8c0.5,0,0.8-0.3,0.9-0.7c0.2-0.6,0.4-1.3,0.8-2.4c1.2-3.1,2.6-7,4.3-10.7
			c0.3-0.7,0.4-0.7,0.6-0.7c0.8,0,0.9-0.3,1.4-0.3s1.3,0.2,1.9,0.4c0.3,0.1,0.5,0.2,0.5,0.4c0,0.1,0,0.3-0.1,0.6
			C-66.3,384.9-68.7,388.3-70.4,391.8z"/>
		<path class="st0" d="M-45,392c0.3,0,1,0.1,1.4,0.7c0.1,0.2,0.1,0.2,0.1,0.3c0,0.2-0.1,0.4-0.2,0.6c-2.2,3-4.9,6.8-5.9,10.7
			c-0.4,1.4-0.7,2.9-0.7,4.5c0,1.3,0.3,2.6,1.1,3.8c0,0.1,0.1,0.2,0.1,0.3s-0.2,0.6-1.1,0.7c-0.3,0.1-0.7,0.2-1,0.2
			c-0.8,0-1.9-0.4-2.2-1c-0.7-1.5-0.9-2.9-0.9-4.4s0.2-2.4,0.2-2.5c0-0.2,0-0.3-0.2-0.3s-0.7,0.4-1.2,0.9l-2.7,2.5
			c-2.6,2.5-4.3,3.2-6,3.8c-0.3,0.1-0.6,0.2-0.8,0.2c-0.6,0-1.2-0.4-3.5-2.3c-0.3-0.2-1.1-1.1-1.1-3c0-1.7,0.6-3.8,3-7.5
			c3-4.5,5.8-6.5,7.3-7.6c2.5-1.8,5.1-3.1,8.1-4c0.4-0.1,0.8-0.2,1.1-0.2c1.2,0,2.2,0.6,3.1,1.5c0.3,0.3,0.7,0.7,0.8,1
			C-46,391.7-45.6,392-45,392z M-51,392.3c-4.8,2.5-8.5,5.3-11.4,8.8c-2.1,2.6-3.8,5.6-3.8,7c0,0.6,0.2,1.4,1.1,1.4
			c0.4,0,1.6-0.6,2.5-1.4c4.7-4.4,10-7.8,12.6-12.6c0.4-0.7,0.9-1.4,1.5-1.9c0.2-0.2,0.3-0.5,0.3-0.8c0-0.4-0.3-1-1.2-1
			C-49.6,391.8-50.4,391.9-51,392.3z"/>
		<path class="st0" d="M-35.6,393.8c0,0.6-0.1,1.1-0.3,1.7c-0.2,0.6-0.2,0.7-0.2,0.8c0,0.2,0,0.2,0.2,0.2c0.1,0,0.3-0.1,0.7-0.4
			c2.8-2.1,5.2-3.5,7-4.1c0.2-0.1,0.5-0.1,0.6-0.1c1.4,0,2.8,0.4,3.7,1.4c0.2,0.2,0.4,0.6,0.4,0.9c0,1.6-1.4,2.2-1.8,2.2
			c-0.8,0-1.6-0.5-2.3-0.5c-0.2,0-0.4,0-0.8,0.2c-5.5,2.6-11,7.1-12.8,14.5c-0.4,1.5-0.9,2.2-1.3,2.4c-0.3,0.3-0.7,0.5-0.9,0.5
			c-0.8-0.1-1.2-0.7-1.5-1.1c-0.5-0.5-0.9-1.3-1-1.9c0-1.7,2.1-3.4,2.7-5.3c1.3-3.8,2.7-7.6,3.5-11.7c0-0.5,0.1-0.7,0.1-0.8
			c0-0.3-0.4-0.7-0.5-1.2c0-0.4,0.8-1.1,2-1.1c0.7,0,1.5,0.3,1.7,0.6C-35.9,391.7-35.6,392.5-35.6,393.8z"/>
		<path class="st0" d="M-18.8,391.8c-0.5,1.1-1.2,3-1.2,3.1s0.1,0.2,0.2,0.2c0.2,0,0.8-0.1,1.3-0.2c2.2-0.5,5.1-1.5,6.8-2.5
			c0.3-0.2,0.5-0.3,0.6-0.3c0.9,0,2.5,0.7,2.5,1.3c0,0.7-0.6,1.5-1.7,1.9c-1.4,0.6-1.4,0.7-2.3,1.1c-2.5,1-6.8,1.9-7.8,2.3
			c-0.5,0.2-0.8,0.4-1,0.8c-0.4,0.7-0.7,1.7-0.9,2.4c-0.2,0.6-0.5,1.1-0.6,1.6c-0.3,1.7-2,6-2.3,8.5c-0.1,0.5-0.6,1.8-1.3,2.1
			c-0.2,0.1-0.6,0.2-0.8,0.2c-0.6,0-1.4-0.3-1.8-0.6c-0.4-0.3-0.6-0.8-0.6-1.2s0.1-1.1,0.2-1.5c1.3-3.7,2.2-8.1,3.8-12
			c0.1-0.2,0.1-0.3,0.1-0.4c0-0.1-0.1-0.2-0.3-0.3c-1.8-0.9-2.1-2.2-3.3-3.2c-0.3-0.2-0.3-0.5-0.3-0.6c0-0.4,0.2-0.5,0.6-0.7
			c0.3-0.2,0.6-0.3,1-0.3c1.1,0,2.4,0.8,3.3,0.8c0.5,0,0.8-0.3,0.9-0.7c0.2-0.6,0.4-1.3,0.8-2.4c1.2-3.1,2.6-7,4.3-10.7
			c0.3-0.7,0.4-0.7,0.6-0.7c0.8,0,0.9-0.3,1.4-0.3s1.3,0.2,1.9,0.4c0.3,0.1,0.5,0.2,0.5,0.4c0,0.1,0,0.3-0.1,0.6
			C-14.7,384.9-17.1,388.3-18.8,391.8z"/>
		<path class="st0" d="M-80.1,462.2c-0.3,0-0.7-0.1-1.5-0.4c-1.9-0.7-2.7-2.3-2.7-4.8c0-1.6,0.3-3.4,1-5.7c0.7-2.2,1.3-3.7,1.9-5.2
			c0.2-0.4,0.2-0.5,0.2-0.6s-0.1-0.1-0.1-0.1c-0.1,0-0.3,0.2-0.7,0.6c-3.4,3.9-6.9,9.8-9.9,13.3c-0.3,0.3-0.3,0.4-0.6,0.5
			c-0.5,0.3-1.2,0.7-1.9,0.7c-0.3,0-1.8-0.6-2.6-1.4c-0.2-0.2-0.2-0.4-0.2-0.6c0-0.6,0.3-0.5,0.5-1.4c1.6-6.7,5.3-14,9.6-22.6
			c2.1-4.3,5-8.9,7.4-13.9c0.3-0.6,0.8-0.7,1.3-0.7s0.8,0.1,1.1,0.1c0.5,0,1,0.4,1.4,0.8s0.5,0.6,0.5,1.3c0,1.3-1.1,2.1-2.4,3.7
			c-0.5,0.6-0.6,0.8-1,1.4c-4.6,6.3-8.6,16.6-12.3,24.6c-0.4,0.9-0.5,1-0.5,1s0,0.1,0.1,0.1s0.1,0,0.4-0.4c3.9-5.6,7.6-10,11.3-14
			c0.7-0.8,1-1,1.4-1.2c0.5-0.2,0.9-0.3,1.2-0.3c0.5,0,1.5,0.2,1.9,0.4c0.4,0.2,0.8,0.6,0.8,1c0,1.5-0.6,2.5-1.5,4
			c-0.7,1.2-0.9,2.1-1.3,3.1c-1.4,3.2-2.6,7.4-2.6,10.8c0,2.4,0.5,2.9,1.3,3.3c0.3,0.2,0.9,0.2,1.3,0.3c0.2,0.1,0.4,0.3,0.4,0.4
			c0,0.2-0.2,0.4-0.3,0.7c-0.2,0.4-0.6,0.6-1,0.7C-79,461.9-79.5,462.2-80.1,462.2z"/>
		<path class="st0" d="M-66.2,461c-0.6,0-1.1-0.1-1.9-0.4c-1.1-0.4-2.9-1.2-3.2-1.4c-1-0.6-2-1.8-2.5-3.5c-0.4-1-0.6-2.9-0.6-3.9
			c0-0.5,0.1-1,0.3-1.7c1.4-5.2,4.9-9.6,8.7-13.7c0.9-0.9,2.9-2.3,5.4-2.3c1.4,0,2.1,0.2,3.1,0.6c0.6,0.2,1.6,1.1,1.6,3.1
			c0,1.3-0.6,2.4-1.2,3.6c-0.5,1-0.9,1.6-1.6,2.4c-3.5,3.9-7.4,8.3-11.7,10.7c-0.3,0.2-0.3,0.3-0.3,0.4c0,0.8,0.8,1.9,1.2,2.1
			c0.6,0.3,1.1,0.4,1.6,0.4c0.9,0,1.6-0.2,3.9-1.4c3.5-1.9,5.6-4.6,8.7-6.5c0.6-0.4,0.8-0.4,1-0.4c0.3,0,1,0.5,1,1s-0.1,0.5-0.1,0.7
			c0,0.2,0,0.5-0.3,0.7c-2.4,2.1-3.5,4.6-11.2,8.9C-65.3,461-65.6,461-66.2,461z M-59.7,437.9c0-0.4,0-0.6-0.3-0.6s-0.6,0.2-1.1,0.5
			c-0.6,0.4-0.5,0.2-1,0.7c-3.3,2.9-6.8,7.1-7.9,11.6c0,0.2,0.1,0.3,0.1,0.3c0.1,0,0.2-0.1,0.4-0.2c3-2.3,5.5-5.1,7.7-7.8
			c0.8-0.9,0.6-1.1,1.2-2.1C-60.1,439.5-59.7,438.9-59.7,437.9z"/>
		<path class="st0" d="M-47.8,441c0,0.6-0.1,1.1-0.3,1.7c-0.2,0.6-0.2,0.7-0.2,0.8c0,0.2,0,0.2,0.2,0.2c0.1,0,0.3-0.1,0.7-0.4
			c2.8-2.1,5.2-3.5,7-4.1c0.2-0.1,0.5-0.1,0.6-0.1c1.4,0,2.8,0.4,3.7,1.4c0.2,0.2,0.4,0.6,0.4,0.9c0,1.6-1.4,2.2-1.8,2.2
			c-0.8,0-1.6-0.5-2.3-0.5c-0.2,0-0.4,0-0.8,0.2c-5.5,2.6-11,7.1-12.8,14.5c-0.4,1.5-0.9,2.2-1.3,2.4c-0.3,0.3-0.7,0.5-0.9,0.5
			c-0.8-0.1-1.2-0.7-1.5-1.1c-0.5-0.5-0.9-1.3-1-1.9c0-1.7,2.1-3.4,2.7-5.3c1.3-3.8,2.7-7.6,3.5-11.7c0.1-0.5,0.1-0.7,0.1-0.8
			c0-0.3-0.4-0.7-0.5-1.2c0-0.4,0.8-1.1,2-1.1c0.7,0,1.5,0.3,1.7,0.6C-48.1,439-47.8,439.9-47.8,441z"/>
		<path class="st0" d="M-33,461c-0.6,0-1.1-0.1-1.9-0.4c-1.1-0.4-2.9-1.2-3.2-1.4c-1-0.6-2-1.8-2.5-3.5c-0.4-1-0.6-2.9-0.6-3.9
			c0-0.5,0.1-1,0.3-1.7c1.4-5.2,4.9-9.6,8.7-13.7c0.9-0.9,2.9-2.3,5.4-2.3c1.4,0,2.1,0.2,3.1,0.6c0.6,0.2,1.6,1.1,1.6,3.1
			c0,1.3-0.6,2.4-1.2,3.6c-0.5,1-0.9,1.6-1.6,2.4c-3.5,3.9-7.4,8.3-11.7,10.7c-0.3,0.2-0.3,0.3-0.3,0.4c0,0.8,0.8,1.9,1.2,2.1
			c0.6,0.3,1.1,0.4,1.6,0.4c0.9,0,1.6-0.2,3.9-1.4c3.5-1.9,5.6-4.6,8.7-6.5c0.6-0.4,0.8-0.4,1-0.4c0.3,0,1,0.5,1,1s-0.1,0.5-0.1,0.7
			c0,0.2,0,0.5-0.3,0.7c-2.4,2.1-3.5,4.6-11.2,8.9C-32.1,461-32.4,461-33,461z M-26.5,437.9c0-0.4,0-0.6-0.3-0.6s-0.6,0.1-1.1,0.5
			c-0.6,0.4-0.5,0.2-1,0.7c-3.3,2.9-6.8,7.1-7.9,11.6c0,0.2,0.1,0.3,0.1,0.3c0.1,0,0.2-0.1,0.4-0.2c3-2.3,5.5-5.1,7.7-7.8
			c0.8-0.9,0.6-1.1,1.2-2.1C-26.9,439.5-26.5,438.9-26.5,437.9z"/>
		<path class="st0" d="M-13.6,457c0,0.5,0,1-0.4,1.9s-0.8,2-1.6,2c-0.4,0-0.8,0.1-2,0.1c-0.8,0-1.6-2.2-1.6-3.1
			c0-0.6,0.1-0.8,0.5-1.4c0.2-0.4,0.2-1.2,1.1-1.2c1.4,0,1.9,1,3.3,1.1C-13.7,456.3-13.6,456.7-13.6,457z M-5.7,430
			c0,1.9-1.1,3.3-1.6,4.8c-1.8,5.6-2.8,10.7-5.1,15.9c-0.2,0.5-0.3,0.6-0.7,0.6c-0.7,0-1-0.4-1.1-0.6c-0.3-1.3-1.4-1.5-1.4-2.2
			c0-0.4,0-0.5,0.2-0.9c0.4-0.9,0.4-1.3,0.6-2.2c1.2-4.9,2.6-8.8,3.4-13.8c0.3-1.6,0.7-4,2.2-4c0.4,0,0.7,0.4,1.1,0.5
			c0.7,0.2,0.7,0.6,1.1,0.7C-6.4,428.9-5.7,429.5-5.7,430z"/>
	</g>
</g>
</svg>
