<svg xmlns="http://www.w3.org/2000/svg" viewBox="0 0 24 24" width="60" height="60"><defs><style>.cls-1{fill:#7dbdc2;}</style></defs><title>support</title><g id="Livello_2" data-name="Livello 2"><g id="Livello_1-2" data-name="Livello 1"><path class="cls-1" d="M12,0A12,12,0,1,0,24,12,12,12,0,0,0,12,0ZM10,16c.56-1.79,1.63-3.93,1.82-4.47.27-.79-.21-1.14-1.74.21l-.34-.64c1.74-1.9,5.34-2.33,4.11.61-.76,1.84-1.31,3.07-1.62,4-.45,1.39.69.83,1.82-.21.15.25.2.33.36.62C11.88,18.53,9.1,18.74,10,16Zm4.74-8.17a1.3,1.3,0,0,1-1.76,0,1.14,1.14,0,0,1,.16-1.66,1.3,1.3,0,0,1,1.76,0A1.14,1.14,0,0,1,14.71,7.84Z"/></g></g></svg>