<svg xmlns="http://www.w3.org/2000/svg" viewBox="0 0 35.25 35.188">
  <metadata><?xpacket begin="﻿" id="W5M0MpCehiHzreSzNTczkc9d"?>
    <x:xmpmeta xmlns:x="adobe:ns:meta/" x:xmptk="Adobe XMP Core 5.6-c138 79.159824, 2016/09/14-01:09:01        ">
     <rdf:RDF xmlns:rdf="http://www.w3.org/1999/02/22-rdf-syntax-ns#">
      <rdf:Description rdf:about=""/>
    </rdf:RDF>
  </x:xmpmeta>


  <?xpacket end="w"?></metadata>
  <defs>
    <style>
      .cls-1 {
      fill: #919191;
      fill-rule: evenodd;
      }
    </style>
  </defs>
  <path id="_" data-name="+" class="cls-1" d="M1748.63,478.994a17.6,17.6,0,1,0,17.63,17.6A17.64,17.64,0,0,0,1748.63,478.994Zm0,32.5a14.9,14.9,0,1,1,14.92-14.895A14.931,14.931,0,0,1,1748.63,511.493Zm8.68-16.25h-7.33v-7.312a1.355,1.355,0,0,0-2.71,0v7.312h-7.33a1.355,1.355,0,0,0,0,2.709h7.33v7.312a1.355,1.355,0,0,0,2.71,0v-7.312h7.33A1.355,1.355,0,0,0,1757.31,495.243Z" transform="translate(-1731 -479)"/>
</svg>
